<?xml version="1.0" encoding="utf-8"?>
<svg version="1.1" id="Layer_1" xmlns="http://www.w3.org/2000/svg" xmlns:xlink="http://www.w3.org/1999/xlink" x="0px" y="0px"
	 viewBox="0 0 216 252" style="enable-background:new 0 0 216 252;" xml:space="preserve">
<style type="text/css">
	.st0{clip-path:url(#SVGID_2_);}
	.st1{clip-path:url(#SVGID_4_);fill:#4B4B4B;}
	.st2{clip-path:url(#SVGID_6_);}
	.st3{fill:#676767;}
	.st4{font-family:'Factoria-Bold';}
	.st5{font-size:51.84px;}
	.st6{letter-spacing:1;}
	.st7{font-family:'Factoria-Demi';}
	.st8{font-size:34.56px;}
	.st9{clip-path:url(#SVGID_8_);}
	.st10{clip-path:url(#SVGID_10_);enable-background:new    ;}
	.st11{clip-path:url(#SVGID_12_);}
	.st12{clip-path:url(#SVGID_14_);}
	.st13{clip-path:url(#SVGID_16_);fill:#4A91CE;}
	.st14{clip-path:url(#SVGID_18_);}
	.st15{clip-path:url(#SVGID_20_);fill:#CCCCCC;}
</style>
<g>
	<defs>
		<path id="SVGID_1_" d="M181.7,223.2v3.8c-0.5,0.4-1,0.6-1.6,0.8c-0.6,0.2-1.2,0.3-1.9,0.3c-0.8,0-1.5-0.1-2.2-0.4
			c-0.6-0.2-1.2-0.6-1.7-1.1c-0.5-0.5-0.8-1-1.1-1.6c-0.2-0.6-0.4-1.3-0.4-2.1c0-0.8,0.1-1.5,0.4-2.1c0.2-0.6,0.6-1.2,1-1.6
			c0.4-0.5,1-0.8,1.6-1c0.6-0.2,1.3-0.4,2.1-0.4c0.4,0,0.8,0,1.1,0.1s0.7,0.1,0.9,0.3c0.3,0.1,0.6,0.2,0.8,0.4
			c0.2,0.2,0.5,0.3,0.7,0.5l-0.4,0.6c-0.1,0.1-0.1,0.2-0.2,0.2c-0.1,0-0.2,0-0.3-0.1c-0.1-0.1-0.2-0.1-0.4-0.2s-0.3-0.2-0.5-0.3
			s-0.5-0.2-0.7-0.2s-0.6-0.1-1-0.1c-0.6,0-1.1,0.1-1.5,0.3c-0.5,0.2-0.8,0.4-1.2,0.8s-0.6,0.8-0.7,1.2s-0.3,1-0.3,1.6
			c0,0.6,0.1,1.2,0.3,1.7c0.2,0.5,0.4,0.9,0.8,1.3c0.3,0.3,0.7,0.6,1.2,0.8c0.5,0.2,1,0.3,1.6,0.3c0.5,0,0.9-0.1,1.2-0.2
			c0.4-0.1,0.7-0.3,1.1-0.4v-2.2H179c-0.1,0-0.2,0-0.2-0.1c-0.1-0.1-0.1-0.1-0.1-0.2v-0.8H181.7z M170.5,218v10h-0.7
			c-0.1,0-0.2,0-0.3-0.1c-0.1,0-0.1-0.1-0.2-0.2l-5.8-7.6c0,0.1,0,0.2,0,0.3s0,0.2,0,0.3v7.1h-1.2v-10h0.7c0.1,0,0.1,0,0.2,0
			c0,0,0.1,0,0.1,0c0,0,0.1,0,0.1,0.1s0.1,0.1,0.1,0.1l5.8,7.6c0-0.1,0-0.2,0-0.4c0-0.1,0-0.2,0-0.3V218H170.5z M159.3,228H158v-10
			h1.4V228z M154.9,218v10h-1.4v-4.6h-5.4v4.6h-1.4v-10h1.4v4.5h5.4V218H154.9z M143.8,219.5c0,0.1-0.1,0.1-0.1,0.2
			c0,0-0.1,0.1-0.2,0.1c-0.1,0-0.2,0-0.3-0.1c-0.1-0.1-0.2-0.2-0.4-0.3c-0.2-0.1-0.4-0.2-0.6-0.3c-0.2-0.1-0.5-0.1-0.8-0.1
			c-0.3,0-0.6,0-0.8,0.1c-0.2,0.1-0.4,0.2-0.6,0.3c-0.2,0.1-0.3,0.3-0.4,0.5c-0.1,0.2-0.1,0.4-0.1,0.6c0,0.3,0.1,0.5,0.2,0.7
			c0.1,0.2,0.3,0.3,0.5,0.5c0.2,0.1,0.5,0.2,0.8,0.3c0.3,0.1,0.6,0.2,0.9,0.3c0.3,0.1,0.6,0.2,0.9,0.3c0.3,0.1,0.5,0.3,0.8,0.5
			c0.2,0.2,0.4,0.4,0.5,0.7c0.1,0.3,0.2,0.6,0.2,1.1c0,0.4-0.1,0.9-0.2,1.2c-0.1,0.4-0.4,0.7-0.7,1s-0.6,0.5-1.1,0.7
			c-0.4,0.2-0.9,0.2-1.4,0.2c-0.7,0-1.2-0.1-1.8-0.4c-0.5-0.2-1-0.6-1.4-1l0.4-0.6c0-0.1,0.1-0.1,0.1-0.1c0.1,0,0.1-0.1,0.2-0.1
			c0.1,0,0.1,0,0.2,0.1c0.1,0,0.2,0.1,0.3,0.2c0.1,0.1,0.2,0.2,0.3,0.2c0.1,0.1,0.3,0.2,0.4,0.2c0.2,0.1,0.3,0.1,0.5,0.2
			c0.2,0,0.4,0.1,0.7,0.1c0.3,0,0.6,0,0.9-0.1c0.3-0.1,0.5-0.2,0.6-0.4c0.2-0.2,0.3-0.4,0.4-0.6c0.1-0.2,0.1-0.5,0.1-0.7
			c0-0.3-0.1-0.6-0.2-0.7c-0.1-0.2-0.3-0.4-0.5-0.5c-0.2-0.1-0.5-0.2-0.8-0.3c-0.3-0.1-0.6-0.2-0.9-0.3c-0.3-0.1-0.6-0.2-0.9-0.3
			s-0.5-0.3-0.8-0.5s-0.4-0.5-0.5-0.8c-0.1-0.3-0.2-0.7-0.2-1.1c0-0.4,0.1-0.7,0.2-1s0.3-0.6,0.6-0.9s0.6-0.5,1-0.6
			c0.4-0.2,0.8-0.2,1.3-0.2c0.6,0,1.1,0.1,1.5,0.3s0.9,0.4,1.2,0.8L143.8,219.5z M135.6,228h-1.4v-10h1.4V228z M131.2,218v10h-1.4
			v-4.6h-5.4v4.6h-1.4v-10h1.4v4.5h5.4V218H131.2z M117.2,218c0.6,0,1.2,0.1,1.7,0.2c0.5,0.1,0.9,0.4,1.2,0.6c0.3,0.3,0.5,0.6,0.7,1
			c0.2,0.4,0.2,0.8,0.2,1.3c0,0.5-0.1,0.9-0.2,1.3c-0.2,0.4-0.4,0.7-0.7,1c-0.3,0.3-0.7,0.5-1.2,0.7c-0.5,0.2-1,0.2-1.6,0.2h-1.6
			v3.8h-1.4v-10H117.2z M117.2,223.2c0.4,0,0.7-0.1,1-0.2c0.3-0.1,0.5-0.2,0.7-0.4c0.2-0.2,0.4-0.4,0.5-0.7s0.2-0.5,0.2-0.8
			c0-0.6-0.2-1.1-0.6-1.5c-0.4-0.4-1-0.5-1.8-0.5h-1.6v4.1H117.2z M106.3,223c0-0.6-0.1-1.2-0.3-1.7c-0.2-0.5-0.4-0.9-0.7-1.2
			c-0.3-0.3-0.7-0.6-1.1-0.8c-0.4-0.2-0.9-0.3-1.5-0.3h-2.4v7.8h2.4c0.5,0,1-0.1,1.5-0.3c0.4-0.2,0.8-0.4,1.1-0.8s0.5-0.7,0.7-1.2
			C106.2,224.1,106.3,223.6,106.3,223z M107.7,223c0,0.8-0.1,1.4-0.4,2.1c-0.2,0.6-0.6,1.1-1,1.6c-0.4,0.4-1,0.8-1.6,1
			c-0.6,0.2-1.3,0.4-2,0.4H99v-10h3.7c0.7,0,1.4,0.1,2,0.4c0.6,0.2,1.1,0.6,1.6,1c0.4,0.4,0.8,1,1,1.6S107.7,222.2,107.7,223z
			 M96.6,226.9l0,1.1h-6.2v-10h6.2v1.1h-4.8v3.3h3.9v1.1h-3.9v3.4H96.6z M88.4,219.1h-3.2v8.9h-1.4v-8.9h-3.3V218h7.9V219.1z
			 M79.2,226.9l0,1.1H73v-10h6.2v1.1h-4.8v3.3h3.9v1.1h-3.9v3.4H79.2z M70.4,223.2v3.8c-0.5,0.4-1,0.6-1.6,0.8
			c-0.6,0.2-1.2,0.3-1.9,0.3c-0.8,0-1.5-0.1-2.2-0.4c-0.6-0.2-1.2-0.6-1.7-1.1s-0.8-1-1.1-1.6s-0.4-1.3-0.4-2.1
			c0-0.8,0.1-1.5,0.4-2.1c0.2-0.6,0.6-1.2,1-1.6c0.4-0.5,1-0.8,1.6-1c0.6-0.2,1.3-0.4,2.1-0.4c0.4,0,0.8,0,1.1,0.1
			c0.3,0.1,0.7,0.1,0.9,0.3c0.3,0.1,0.6,0.2,0.8,0.4c0.2,0.2,0.5,0.3,0.7,0.5l-0.4,0.6c-0.1,0.1-0.1,0.2-0.2,0.2
			c-0.1,0-0.2,0-0.3-0.1c-0.1-0.1-0.2-0.1-0.4-0.2s-0.3-0.2-0.5-0.3c-0.2-0.1-0.5-0.2-0.7-0.2c-0.3-0.1-0.6-0.1-1-0.1
			c-0.6,0-1.1,0.1-1.5,0.3c-0.5,0.2-0.8,0.4-1.2,0.8c-0.3,0.3-0.6,0.8-0.7,1.2c-0.2,0.5-0.3,1-0.3,1.6c0,0.6,0.1,1.2,0.3,1.7
			c0.2,0.5,0.4,0.9,0.8,1.3c0.3,0.3,0.7,0.6,1.2,0.8c0.5,0.2,1,0.3,1.6,0.3c0.5,0,0.9-0.1,1.2-0.2s0.7-0.3,1.1-0.4v-2.2h-1.6
			c-0.1,0-0.2,0-0.2-0.1c-0.1-0.1-0.1-0.1-0.1-0.2v-0.8H70.4z M60.5,228h-1.2c-0.2,0-0.4-0.1-0.5-0.3l-2.6-3.6
			c-0.1-0.1-0.2-0.2-0.3-0.2s-0.2-0.1-0.4-0.1h-1v4.2h-1.4v-10H56c0.6,0,1.2,0.1,1.6,0.2c0.5,0.1,0.8,0.3,1.1,0.6
			c0.3,0.2,0.5,0.5,0.7,0.9c0.1,0.3,0.2,0.7,0.2,1.2c0,0.4-0.1,0.7-0.2,1c-0.1,0.3-0.3,0.6-0.5,0.8c-0.2,0.2-0.5,0.5-0.8,0.6
			c-0.3,0.2-0.7,0.3-1,0.4c0.2,0.1,0.3,0.2,0.4,0.4L60.5,228z M55.9,222.8c0.4,0,0.7,0,1-0.1c0.3-0.1,0.6-0.2,0.8-0.4
			c0.2-0.2,0.4-0.4,0.5-0.6c0.1-0.2,0.2-0.5,0.2-0.8c0-0.6-0.2-1-0.6-1.4c-0.4-0.3-1-0.5-1.8-0.5h-1.5v3.8H55.9z M51.3,228h-1
			c-0.1,0-0.2,0-0.3-0.1c-0.1-0.1-0.1-0.1-0.2-0.2l-0.9-2.4h-4.5l-0.9,2.4c0,0.1-0.1,0.2-0.2,0.2c-0.1,0.1-0.2,0.1-0.3,0.1h-1.1
			l4-10h1.4L51.3,228z M48.5,224.3l-1.6-4.1c0-0.1-0.1-0.3-0.1-0.4s-0.1-0.3-0.1-0.5c-0.1,0.4-0.2,0.7-0.3,0.9l-1.6,4.1H48.5z
			 M42.1,219.1h-3.2v8.9h-1.4v-8.9h-3.3V218h7.9V219.1z M202,197v10h-1.4v-4.6h-5.4v4.6h-1.4v-10h1.4v4.5h5.4V197H202z M191.8,198.1
			h-3.2v8.9h-1.4v-8.9H184V197h7.9V198.1z M182,207h-1.4v-10h1.4V207z M178.6,197l-3.1,10h-1.2l-2.5-7.7c0-0.1,0-0.2-0.1-0.2
			l-0.1-0.3c0,0.1,0,0.2-0.1,0.3s0,0.2-0.1,0.2l-2.6,7.7h-1.2l-3.1-10h1.1c0.1,0,0.2,0,0.3,0.1c0.1,0.1,0.1,0.1,0.2,0.2l2.1,7
			c0,0.1,0.1,0.3,0.1,0.4c0,0.1,0.1,0.3,0.1,0.5c0-0.2,0.1-0.3,0.1-0.5c0-0.1,0.1-0.3,0.1-0.4l2.4-7c0-0.1,0.1-0.2,0.2-0.2
			s0.2-0.1,0.3-0.1h0.4c0.1,0,0.2,0,0.3,0.1c0.1,0.1,0.1,0.1,0.2,0.2l2.4,7c0,0.1,0.1,0.3,0.1,0.4s0.1,0.3,0.1,0.4
			c0-0.2,0-0.3,0.1-0.4s0.1-0.3,0.1-0.4l2.1-7c0-0.1,0.1-0.2,0.2-0.2c0.1-0.1,0.2-0.1,0.3-0.1H178.6z M158.7,197v10H158
			c-0.1,0-0.2,0-0.3-0.1c-0.1,0-0.1-0.1-0.2-0.2l-5.8-7.6c0,0.1,0,0.2,0,0.3s0,0.2,0,0.3v7.1h-1.2v-10h0.7c0.1,0,0.1,0,0.2,0
			c0,0,0.1,0,0.1,0s0.1,0,0.1,0.1c0,0,0.1,0.1,0.1,0.1l5.8,7.6c0-0.1,0-0.2,0-0.4c0-0.1,0-0.2,0-0.3V197H158.7z M147.5,207h-1.4v-10
			h1.4V207z M143.6,202.2v3.8c-0.5,0.4-1,0.6-1.6,0.8c-0.6,0.2-1.2,0.3-1.9,0.3c-0.8,0-1.5-0.1-2.2-0.4c-0.6-0.2-1.2-0.6-1.7-1.1
			c-0.5-0.5-0.8-1-1.1-1.6c-0.2-0.6-0.4-1.3-0.4-2.1c0-0.8,0.1-1.5,0.4-2.1c0.2-0.6,0.6-1.2,1-1.6c0.4-0.5,1-0.8,1.6-1
			c0.6-0.2,1.3-0.4,2.1-0.4c0.4,0,0.8,0,1.1,0.1c0.3,0.1,0.7,0.1,0.9,0.3c0.3,0.1,0.6,0.2,0.8,0.4c0.2,0.2,0.5,0.3,0.7,0.5l-0.4,0.6
			c-0.1,0.1-0.1,0.2-0.2,0.2c-0.1,0-0.2,0-0.3-0.1c-0.1-0.1-0.2-0.1-0.4-0.2c-0.1-0.1-0.3-0.2-0.5-0.3s-0.5-0.2-0.7-0.2
			c-0.3-0.1-0.6-0.1-1-0.1c-0.6,0-1.1,0.1-1.5,0.3c-0.5,0.2-0.8,0.4-1.2,0.8s-0.6,0.8-0.7,1.2c-0.2,0.5-0.3,1-0.3,1.6
			c0,0.6,0.1,1.2,0.3,1.7c0.2,0.5,0.4,0.9,0.8,1.3s0.7,0.6,1.2,0.8c0.5,0.2,1,0.3,1.6,0.3c0.5,0,0.9-0.1,1.2-0.2s0.7-0.3,1.1-0.4
			v-2.2h-1.6c-0.1,0-0.2,0-0.2-0.1c-0.1-0.1-0.1-0.1-0.1-0.2v-0.8H143.6z M133.2,205.9l0,1.1H127v-10h6.2v1.1h-4.8v3.3h3.9v1.1h-3.9
			v3.4H133.2z M120.7,197c0.6,0,1.1,0.1,1.6,0.2c0.4,0.1,0.8,0.3,1.1,0.5c0.3,0.2,0.5,0.5,0.6,0.8c0.1,0.3,0.2,0.7,0.2,1.1
			c0,0.2,0,0.5-0.1,0.7c-0.1,0.2-0.2,0.4-0.3,0.6s-0.3,0.4-0.6,0.5c-0.2,0.2-0.5,0.3-0.8,0.4c0.7,0.1,1.3,0.4,1.7,0.8
			c0.4,0.4,0.6,0.9,0.6,1.5c0,0.4-0.1,0.8-0.2,1.2c-0.2,0.3-0.4,0.7-0.7,0.9s-0.7,0.4-1.1,0.6c-0.4,0.1-0.9,0.2-1.5,0.2h-3.5v-10
			H120.7z M118.8,198v3.4h1.8c0.4,0,0.7,0,1-0.1c0.3-0.1,0.5-0.2,0.7-0.3c0.2-0.1,0.3-0.3,0.4-0.5c0.1-0.2,0.1-0.4,0.1-0.7
			c0-0.6-0.2-1-0.5-1.3c-0.4-0.3-0.9-0.4-1.7-0.4H118.8z M121,205.9c0.4,0,0.7,0,1-0.1s0.5-0.2,0.7-0.4c0.2-0.2,0.3-0.4,0.4-0.6
			c0.1-0.2,0.1-0.5,0.1-0.7c0-0.5-0.2-0.9-0.6-1.2c-0.4-0.3-0.9-0.5-1.7-0.5h-2.2v3.5H121z M110.4,198.5c0,0.1-0.1,0.1-0.1,0.2
			c0,0-0.1,0.1-0.2,0.1c-0.1,0-0.2,0-0.3-0.1s-0.2-0.2-0.4-0.3c-0.2-0.1-0.4-0.2-0.6-0.3c-0.2-0.1-0.5-0.1-0.8-0.1
			c-0.3,0-0.6,0-0.8,0.1c-0.2,0.1-0.4,0.2-0.6,0.3c-0.2,0.1-0.3,0.3-0.4,0.5s-0.1,0.4-0.1,0.6c0,0.3,0.1,0.5,0.2,0.7
			s0.3,0.3,0.5,0.5c0.2,0.1,0.5,0.2,0.8,0.3s0.6,0.2,0.9,0.3c0.3,0.1,0.6,0.2,0.9,0.3s0.5,0.3,0.8,0.5c0.2,0.2,0.4,0.4,0.5,0.7
			c0.1,0.3,0.2,0.6,0.2,1.1c0,0.4-0.1,0.9-0.2,1.2c-0.1,0.4-0.4,0.7-0.7,1c-0.3,0.3-0.6,0.5-1.1,0.7s-0.9,0.2-1.4,0.2
			c-0.7,0-1.2-0.1-1.8-0.4s-1-0.6-1.4-1l0.4-0.6c0-0.1,0.1-0.1,0.1-0.1c0.1,0,0.1-0.1,0.2-0.1c0.1,0,0.1,0,0.2,0.1
			c0.1,0,0.2,0.1,0.3,0.2c0.1,0.1,0.2,0.2,0.3,0.2s0.3,0.2,0.4,0.2c0.2,0.1,0.3,0.1,0.5,0.2s0.4,0.1,0.7,0.1c0.3,0,0.6,0,0.9-0.1
			c0.3-0.1,0.5-0.2,0.6-0.4c0.2-0.2,0.3-0.4,0.4-0.6s0.1-0.5,0.1-0.7c0-0.3-0.1-0.6-0.2-0.7c-0.1-0.2-0.3-0.4-0.5-0.5
			c-0.2-0.1-0.5-0.2-0.8-0.3c-0.3-0.1-0.6-0.2-0.9-0.3c-0.3-0.1-0.6-0.2-0.9-0.3c-0.3-0.1-0.5-0.3-0.8-0.5c-0.2-0.2-0.4-0.5-0.5-0.8
			c-0.1-0.3-0.2-0.7-0.2-1.1c0-0.4,0.1-0.7,0.2-1s0.3-0.6,0.6-0.9c0.3-0.3,0.6-0.5,1-0.6c0.4-0.2,0.8-0.2,1.3-0.2
			c0.6,0,1.1,0.1,1.5,0.3c0.5,0.2,0.9,0.4,1.2,0.8L110.4,198.5z M102.9,205.9l0,1.1h-6.2v-10h6.2v1.1h-4.8v3.3h3.9v1.1h-3.9v3.4
			H102.9z M93.7,197v10h-1.4v-4.6h-5.4v4.6h-1.4v-10h1.4v4.5h5.4V197H93.7z M82.7,204.9c0.1,0,0.1,0,0.2,0.1l0.5,0.6
			c-0.4,0.5-0.9,0.8-1.5,1.1c-0.6,0.3-1.3,0.4-2.1,0.4c-0.7,0-1.4-0.1-2-0.4c-0.6-0.2-1.1-0.6-1.5-1.1c-0.4-0.5-0.7-1-1-1.6
			c-0.2-0.6-0.3-1.3-0.3-2.1c0-0.8,0.1-1.4,0.4-2.1s0.6-1.2,1-1.6c0.4-0.5,0.9-0.8,1.6-1.1c0.6-0.2,1.3-0.4,2-0.4
			c0.7,0,1.3,0.1,1.9,0.3c0.5,0.2,1,0.5,1.4,0.9l-0.4,0.6c0,0-0.1,0.1-0.1,0.1c0,0-0.1,0-0.2,0c-0.1,0-0.2,0-0.3-0.1
			c-0.1-0.1-0.3-0.2-0.5-0.3s-0.4-0.2-0.7-0.3S80.4,198,80,198c-0.5,0-1,0.1-1.4,0.3c-0.4,0.2-0.8,0.4-1.1,0.8
			c-0.3,0.3-0.6,0.8-0.7,1.2c-0.2,0.5-0.3,1-0.3,1.7c0,0.6,0.1,1.2,0.3,1.7s0.4,0.9,0.7,1.2c0.3,0.3,0.7,0.6,1.1,0.8
			c0.4,0.2,0.9,0.3,1.4,0.3c0.3,0,0.6,0,0.8-0.1c0.2,0,0.5-0.1,0.7-0.2c0.2-0.1,0.4-0.2,0.6-0.3c0.2-0.1,0.3-0.3,0.5-0.4
			C82.6,205,82.6,204.9,82.7,204.9z M74.1,207h-1.1c-0.1,0-0.2,0-0.3-0.1c-0.1-0.1-0.1-0.1-0.2-0.2l-0.9-2.4h-4.5l-0.9,2.4
			c0,0.1-0.1,0.2-0.2,0.2c-0.1,0.1-0.2,0.1-0.3,0.1h-1.1l4-10h1.4L74.1,207z M71.3,203.3l-1.6-4.1c0-0.1-0.1-0.3-0.1-0.4
			s-0.1-0.3-0.1-0.5c-0.1,0.4-0.2,0.7-0.3,0.9l-1.6,4.1H71.3z M63.6,205.9l0,1.1h-6.2v-10h6.2v1.1h-4.8v3.3h3.9v1.1h-3.9v3.4H63.6z
			 M55.5,207h-1.2c-0.2,0-0.4-0.1-0.5-0.3l-2.6-3.6c-0.1-0.1-0.2-0.2-0.3-0.2s-0.2-0.1-0.4-0.1h-1v4.2h-1.4v-10h2.8
			c0.6,0,1.2,0.1,1.6,0.2c0.5,0.1,0.8,0.3,1.1,0.6c0.3,0.2,0.5,0.5,0.7,0.9c0.1,0.3,0.2,0.7,0.2,1.2c0,0.4-0.1,0.7-0.2,1
			c-0.1,0.3-0.3,0.6-0.5,0.8c-0.2,0.2-0.5,0.5-0.8,0.6s-0.7,0.3-1,0.4c0.2,0.1,0.3,0.2,0.4,0.4L55.5,207z M50.9,201.8
			c0.4,0,0.7,0,1-0.1c0.3-0.1,0.6-0.2,0.8-0.4c0.2-0.2,0.4-0.4,0.5-0.6c0.1-0.2,0.2-0.5,0.2-0.8c0-0.6-0.2-1-0.6-1.4
			c-0.4-0.3-1-0.5-1.8-0.5h-1.5v3.8H50.9z M41.8,197c0.6,0,1.1,0.1,1.6,0.2c0.4,0.1,0.8,0.3,1.1,0.5c0.3,0.2,0.5,0.5,0.6,0.8
			c0.1,0.3,0.2,0.7,0.2,1.1c0,0.2,0,0.5-0.1,0.7c-0.1,0.2-0.2,0.4-0.3,0.6s-0.3,0.4-0.6,0.5c-0.2,0.2-0.5,0.3-0.8,0.4
			c0.7,0.1,1.3,0.4,1.7,0.8c0.4,0.4,0.6,0.9,0.6,1.5c0,0.4-0.1,0.8-0.2,1.2c-0.2,0.3-0.4,0.7-0.7,0.9c-0.3,0.3-0.7,0.4-1.1,0.6
			c-0.4,0.1-0.9,0.2-1.5,0.2h-3.5v-10H41.8z M39.9,198v3.4h1.8c0.4,0,0.7,0,1-0.1c0.3-0.1,0.5-0.2,0.7-0.3c0.2-0.1,0.3-0.3,0.4-0.5
			c0.1-0.2,0.1-0.4,0.1-0.7c0-0.6-0.2-1-0.5-1.3c-0.4-0.3-0.9-0.4-1.7-0.4H39.9z M42.1,205.9c0.4,0,0.7,0,1-0.1
			c0.3-0.1,0.5-0.2,0.7-0.4c0.2-0.2,0.3-0.4,0.4-0.6c0.1-0.2,0.1-0.5,0.1-0.7c0-0.5-0.2-0.9-0.6-1.2c-0.4-0.3-0.9-0.5-1.7-0.5h-2.2
			v3.5H42.1z M27.7,198.1v3.5h4.1v1.1h-4.1v4.3h-1.4v-10h6.2v1.1H27.7z M22.5,202c0-0.6-0.1-1.2-0.3-1.7c-0.2-0.5-0.4-0.9-0.7-1.2
			c-0.3-0.3-0.7-0.6-1.1-0.8c-0.4-0.2-0.9-0.3-1.5-0.3c-0.5,0-1,0.1-1.5,0.3c-0.4,0.2-0.8,0.4-1.1,0.8c-0.3,0.3-0.5,0.8-0.7,1.2
			c-0.2,0.5-0.3,1-0.3,1.7c0,0.6,0.1,1.2,0.3,1.7c0.2,0.5,0.4,0.9,0.7,1.2c0.3,0.3,0.7,0.6,1.1,0.8s0.9,0.3,1.5,0.3
			c0.5,0,1-0.1,1.5-0.3s0.8-0.4,1.1-0.8c0.3-0.3,0.5-0.8,0.7-1.2S22.5,202.6,22.5,202z M23.9,202c0,0.8-0.1,1.4-0.4,2.1
			c-0.2,0.6-0.6,1.2-1,1.6s-1,0.8-1.6,1.1c-0.6,0.2-1.3,0.4-2,0.4s-1.4-0.1-2-0.4c-0.6-0.2-1.1-0.6-1.6-1.1s-0.8-1-1-1.6
			c-0.2-0.6-0.4-1.3-0.4-2.1c0-0.8,0.1-1.4,0.4-2.1c0.2-0.6,0.6-1.2,1-1.6s1-0.8,1.6-1.1c0.6-0.3,1.3-0.4,2-0.4s1.4,0.1,2,0.4
			s1.1,0.6,1.6,1.1s0.8,1,1,1.6C23.8,200.5,23.9,201.2,23.9,202z"/>
	</defs>
	<clipPath id="SVGID_2_">
		<use xlink:href="#SVGID_1_"  style="overflow:visible;"/>
	</clipPath>
	<g class="st0">
		<defs>
			<rect id="SVGID_3_" x="-51.9" y="-1286" width="320" height="2960"/>
		</defs>
		<clipPath id="SVGID_4_">
			<use xlink:href="#SVGID_3_"  style="overflow:visible;"/>
		</clipPath>
		<rect x="9" y="191.9" class="st1" width="197.9" height="41.3"/>
	</g>
</g>
<g>
	<defs>
		<rect id="SVGID_5_" x="-52" y="-1286" width="320" height="2960"/>
	</defs>
	<clipPath id="SVGID_6_">
		<use xlink:href="#SVGID_5_"  style="overflow:visible;"/>
	</clipPath>
	<g class="st2">
		<text transform="matrix(1 0 0 1 63.1533 109.9942)"><tspan x="0" y="0" class="st3 st4 st5 st6">9</tspan><tspan x="33.9" y="0" class="st3 st4 st5">5</tspan></text>
	</g>
	<g class="st2">
		<text transform="matrix(1 0 0 1 134.4165 98.2708)" class="st3 st7 st8">%</text>
	</g>
</g>
<g>
	<defs>
		<rect id="SVGID_7_" x="29.1" y="13.4" width="157.8" height="155.4"/>
	</defs>
	<clipPath id="SVGID_8_">
		<use xlink:href="#SVGID_7_"  style="overflow:visible;"/>
	</clipPath>
	<g class="st9">
		<defs>
			<rect id="SVGID_9_" x="-51.9" y="-1286" width="320" height="2960"/>
		</defs>
		<clipPath id="SVGID_10_">
			<use xlink:href="#SVGID_9_"  style="overflow:visible;"/>
		</clipPath>
		<g class="st10">
			<g>
				<defs>
					<rect id="SVGID_11_" x="24.1" y="8" width="168" height="166"/>
				</defs>
				<clipPath id="SVGID_12_">
					<use xlink:href="#SVGID_11_"  style="overflow:visible;"/>
				</clipPath>
				<g class="st11">
					<defs>
						<path id="SVGID_13_" d="M141.6,20.8c-25.6-11.9-54.3-9-76.4,5l6.1,9.3c19-12,43.6-14.5,65.5-4.3
							c33.8,15.7,48.2,55.4,32.3,88.7c-15.9,33.3-56.2,47.5-90,31.8S30.9,96,46.8,62.7C51.4,53.1,58,45.1,65.9,39l-7-8.7
							C49.7,37.5,42,46.8,36.7,58C18.1,96.8,35,143.1,74.4,161.4c39.4,18.3,86.4,1.7,105-37.1C197.9,85.4,181,39.1,141.6,20.8"/>
					</defs>
					<clipPath id="SVGID_14_">
						<use xlink:href="#SVGID_13_"  style="overflow:visible;"/>
					</clipPath>
					<g class="st12">
						<defs>
							<rect id="SVGID_15_" x="29.1" y="13" width="158" height="156"/>
						</defs>
						<clipPath id="SVGID_16_">
							<use xlink:href="#SVGID_15_"  style="overflow:visible;"/>
						</clipPath>
						<rect x="24.1" y="8.4" class="st13" width="167.8" height="165.4"/>
					</g>
				</g>
			</g>
		</g>
	</g>
</g>
<g>
	<defs>
		<path id="SVGID_17_" d="M71.3,35.1l-6.1-9.3c-2.2,1.4-4.3,2.9-6.3,4.4l7,8.7C67.6,37.6,69.4,36.3,71.3,35.1"/>
	</defs>
	<clipPath id="SVGID_18_">
		<use xlink:href="#SVGID_17_"  style="overflow:visible;"/>
	</clipPath>
	<g class="st14">
		<defs>
			<rect id="SVGID_19_" x="-51.9" y="-1286" width="320" height="2960"/>
		</defs>
		<clipPath id="SVGID_20_">
			<use xlink:href="#SVGID_19_"  style="overflow:visible;"/>
		</clipPath>
		<rect x="53.9" y="20.8" class="st15" width="22.4" height="23.1"/>
	</g>
</g>
</svg>
