<?xml version="1.0" encoding="utf-8"?>
<svg version="1.1" id="Layer_1" xmlns="http://www.w3.org/2000/svg" xmlns:xlink="http://www.w3.org/1999/xlink" x="0px" y="0px"
	 viewBox="0 0 324 115.2" style="enable-background:new 0 0 324 115.2;" xml:space="preserve">
<style type="text/css">
	.st0{clip-path:url(#SVGID_2_);}
	.st1{fill:#676767;}
	.st2{font-family:'Factoria-Bold';}
	.st3{font-size:36px;}
	.st4{letter-spacing:1;}
	.st5{font-family:'Factoria-Demi';}
	.st6{font-size:24px;}
	.st7{clip-path:url(#SVGID_4_);}
	.st8{clip-path:url(#SVGID_6_);fill:#4B4B4B;}
	.st9{clip-path:url(#SVGID_8_);}
	.st10{clip-path:url(#SVGID_10_);enable-background:new    ;}
	.st11{clip-path:url(#SVGID_12_);}
	.st12{clip-path:url(#SVGID_14_);}
	.st13{clip-path:url(#SVGID_16_);fill:#4A91CE;}
	.st14{clip-path:url(#SVGID_18_);}
	.st15{clip-path:url(#SVGID_20_);fill:#CCCCCC;}
</style>
<g>
	<defs>
		<rect id="SVGID_1_" x="-498.7" y="-766.6" width="1440" height="1581"/>
	</defs>
	<clipPath id="SVGID_2_">
		<use xlink:href="#SVGID_1_"  style="overflow:visible;"/>
	</clipPath>
	<g class="st0">
		<text transform="matrix(1 0 0 1 28.0498 70.4393)"><tspan x="0" y="0" class="st1 st2 st3 st4">9</tspan><tspan x="23.5" y="0" class="st1 st2 st3">5</tspan></text>
	</g>
	<g class="st0">
		<text transform="matrix(1 0 0 1 77.333 62.4393)" class="st1 st5 st6">%</text>
	</g>
</g>
<g>
	<defs>
		<path id="SVGID_3_" d="M279,69.6v3.8c-0.5,0.4-1,0.6-1.6,0.8c-0.6,0.2-1.2,0.3-1.9,0.3c-0.8,0-1.5-0.1-2.2-0.4
			c-0.6-0.2-1.2-0.6-1.7-1.1c-0.5-0.5-0.8-1-1.1-1.6c-0.2-0.6-0.4-1.3-0.4-2.1c0-0.8,0.1-1.5,0.4-2.1c0.2-0.6,0.6-1.2,1-1.6
			c0.4-0.5,1-0.8,1.6-1c0.6-0.2,1.3-0.4,2.1-0.4c0.4,0,0.8,0,1.1,0.1c0.3,0.1,0.7,0.1,0.9,0.3s0.6,0.2,0.8,0.4
			c0.2,0.2,0.5,0.3,0.7,0.5l-0.4,0.6c-0.1,0.1-0.1,0.2-0.2,0.2s-0.2,0-0.3-0.1c-0.1-0.1-0.2-0.1-0.4-0.2c-0.1-0.1-0.3-0.2-0.5-0.3
			c-0.2-0.1-0.5-0.2-0.7-0.2s-0.6-0.1-1-0.1c-0.6,0-1.1,0.1-1.5,0.3c-0.5,0.2-0.8,0.4-1.2,0.8c-0.3,0.3-0.6,0.8-0.7,1.2
			s-0.3,1-0.3,1.6c0,0.6,0.1,1.2,0.3,1.7c0.2,0.5,0.4,0.9,0.8,1.3s0.7,0.6,1.2,0.8c0.5,0.2,1,0.3,1.6,0.3c0.5,0,0.9-0.1,1.2-0.2
			c0.4-0.1,0.7-0.3,1.1-0.4v-2.2h-1.6c-0.1,0-0.2,0-0.2-0.1c-0.1-0.1-0.1-0.1-0.1-0.2v-0.8H279z M267.8,64.4v10h-0.7
			c-0.1,0-0.2,0-0.3-0.1c-0.1,0-0.1-0.1-0.2-0.2l-5.8-7.6c0,0.1,0,0.2,0,0.3s0,0.2,0,0.3v7.1h-1.2v-10h0.7c0.1,0,0.1,0,0.2,0
			c0,0,0.1,0,0.1,0c0,0,0.1,0,0.1,0.1c0,0,0.1,0.1,0.1,0.1l5.8,7.6c0-0.1,0-0.2,0-0.4c0-0.1,0-0.2,0-0.3v-7.1H267.8z M256.6,74.4
			h-1.4v-10h1.4V74.4z M252.2,64.4v10h-1.4v-4.6h-5.4v4.6h-1.4v-10h1.4v4.5h5.4v-4.5H252.2z M241.1,66c0,0.1-0.1,0.1-0.1,0.2
			c0,0-0.1,0.1-0.2,0.1c-0.1,0-0.2,0-0.3-0.1c-0.1-0.1-0.2-0.2-0.4-0.3c-0.2-0.1-0.4-0.2-0.6-0.3c-0.2-0.1-0.5-0.1-0.8-0.1
			c-0.3,0-0.6,0-0.8,0.1c-0.2,0.1-0.4,0.2-0.6,0.3c-0.2,0.1-0.3,0.3-0.4,0.5c-0.1,0.2-0.1,0.4-0.1,0.6c0,0.3,0.1,0.5,0.2,0.7
			c0.1,0.2,0.3,0.3,0.5,0.5c0.2,0.1,0.5,0.2,0.8,0.3c0.3,0.1,0.6,0.2,0.9,0.3c0.3,0.1,0.6,0.2,0.9,0.3s0.5,0.3,0.8,0.5
			c0.2,0.2,0.4,0.4,0.5,0.7c0.1,0.3,0.2,0.6,0.2,1.1c0,0.4-0.1,0.9-0.2,1.2c-0.1,0.4-0.4,0.7-0.7,1c-0.3,0.3-0.6,0.5-1.1,0.7
			c-0.4,0.2-0.9,0.2-1.4,0.2c-0.7,0-1.2-0.1-1.8-0.4c-0.5-0.2-1-0.6-1.4-1l0.4-0.6c0-0.1,0.1-0.1,0.1-0.1c0.1,0,0.1-0.1,0.2-0.1
			c0.1,0,0.1,0,0.2,0.1c0.1,0,0.2,0.1,0.3,0.2c0.1,0.1,0.2,0.2,0.3,0.2c0.1,0.1,0.3,0.2,0.4,0.2c0.2,0.1,0.3,0.1,0.5,0.2
			c0.2,0,0.4,0.1,0.7,0.1c0.3,0,0.6,0,0.9-0.1c0.3-0.1,0.5-0.2,0.6-0.4c0.2-0.2,0.3-0.4,0.4-0.6c0.1-0.2,0.1-0.5,0.1-0.7
			c0-0.3-0.1-0.6-0.2-0.7c-0.1-0.2-0.3-0.4-0.5-0.5c-0.2-0.1-0.5-0.2-0.8-0.3c-0.3-0.1-0.6-0.2-0.9-0.3c-0.3-0.1-0.6-0.2-0.9-0.3
			c-0.3-0.1-0.5-0.3-0.8-0.5s-0.4-0.5-0.5-0.8c-0.1-0.3-0.2-0.7-0.2-1.1c0-0.4,0.1-0.7,0.2-1c0.1-0.3,0.3-0.6,0.6-0.9
			c0.3-0.3,0.6-0.5,1-0.6c0.4-0.2,0.8-0.2,1.3-0.2c0.6,0,1.1,0.1,1.5,0.3s0.9,0.4,1.2,0.8L241.1,66z M232.9,74.4h-1.4v-10h1.4V74.4z
			 M228.5,64.4v10h-1.4v-4.6h-5.4v4.6h-1.4v-10h1.4v4.5h5.4v-4.5H228.5z M214.4,64.4c0.6,0,1.2,0.1,1.7,0.2c0.5,0.1,0.9,0.4,1.2,0.6
			s0.5,0.6,0.7,1c0.2,0.4,0.2,0.8,0.2,1.3c0,0.5-0.1,0.9-0.2,1.3s-0.4,0.7-0.7,1c-0.3,0.3-0.7,0.5-1.2,0.7c-0.5,0.2-1,0.2-1.6,0.2
			h-1.6v3.8h-1.4v-10H214.4z M214.4,69.6c0.4,0,0.7-0.1,1-0.2c0.3-0.1,0.5-0.2,0.7-0.4c0.2-0.2,0.4-0.4,0.5-0.7
			c0.1-0.3,0.2-0.5,0.2-0.8c0-0.6-0.2-1.1-0.6-1.5s-1-0.5-1.8-0.5h-1.6v4.1H214.4z M203.5,69.4c0-0.6-0.1-1.2-0.3-1.7
			c-0.2-0.5-0.4-0.9-0.7-1.2s-0.7-0.6-1.1-0.8c-0.4-0.2-0.9-0.3-1.5-0.3h-2.4v7.8h2.4c0.5,0,1-0.1,1.5-0.3c0.4-0.2,0.8-0.4,1.1-0.8
			s0.5-0.7,0.7-1.2C203.4,70.6,203.5,70,203.5,69.4z M204.9,69.4c0,0.8-0.1,1.4-0.4,2.1c-0.2,0.6-0.6,1.1-1,1.6
			c-0.4,0.4-1,0.8-1.6,1c-0.6,0.2-1.3,0.4-2,0.4h-3.7v-10h3.7c0.7,0,1.4,0.1,2,0.4c0.6,0.2,1.1,0.6,1.6,1c0.4,0.4,0.8,1,1,1.6
			C204.8,68,204.9,68.7,204.9,69.4z M193.8,73.3l0,1.1h-6.2v-10h6.2v1.1H189v3.3h3.9v1.1H189v3.4H193.8z M185.6,65.5h-3.2v8.9H181
			v-8.9h-3.3v-1.1h7.9V65.5z M176.5,73.3l0,1.1h-6.2v-10h6.2v1.1h-4.8v3.3h3.9v1.1h-3.9v3.4H176.5z M167.7,69.6v3.8
			c-0.5,0.4-1,0.6-1.6,0.8c-0.6,0.2-1.2,0.3-1.9,0.3c-0.8,0-1.5-0.1-2.2-0.4s-1.2-0.6-1.7-1.1s-0.8-1-1.1-1.6s-0.4-1.3-0.4-2.1
			c0-0.8,0.1-1.5,0.4-2.1c0.2-0.6,0.6-1.2,1-1.6c0.4-0.5,1-0.8,1.6-1s1.3-0.4,2.1-0.4c0.4,0,0.8,0,1.1,0.1c0.3,0.1,0.7,0.1,0.9,0.3
			s0.6,0.2,0.8,0.4c0.2,0.2,0.5,0.3,0.7,0.5l-0.4,0.6c-0.1,0.1-0.1,0.2-0.2,0.2c-0.1,0-0.2,0-0.3-0.1c-0.1-0.1-0.2-0.1-0.4-0.2
			c-0.1-0.1-0.3-0.2-0.5-0.3c-0.2-0.1-0.5-0.2-0.7-0.2s-0.6-0.1-1-0.1c-0.6,0-1.1,0.1-1.5,0.3c-0.5,0.2-0.8,0.4-1.2,0.8
			c-0.3,0.3-0.6,0.8-0.7,1.2s-0.3,1-0.3,1.6c0,0.6,0.1,1.2,0.3,1.7c0.2,0.5,0.4,0.9,0.8,1.3s0.7,0.6,1.2,0.8c0.5,0.2,1,0.3,1.6,0.3
			c0.5,0,0.9-0.1,1.2-0.2c0.4-0.1,0.7-0.3,1.1-0.4v-2.2h-1.6c-0.1,0-0.2,0-0.2-0.1c-0.1-0.1-0.1-0.1-0.1-0.2v-0.8H167.7z
			 M157.8,74.4h-1.2c-0.2,0-0.4-0.1-0.5-0.3l-2.6-3.6c-0.1-0.1-0.2-0.2-0.3-0.2c-0.1,0-0.2-0.1-0.4-0.1h-1v4.2h-1.4v-10h2.8
			c0.6,0,1.2,0.1,1.6,0.2c0.5,0.1,0.8,0.3,1.1,0.6s0.5,0.5,0.7,0.9c0.1,0.3,0.2,0.7,0.2,1.2c0,0.4-0.1,0.7-0.2,1
			c-0.1,0.3-0.3,0.6-0.5,0.8c-0.2,0.2-0.5,0.5-0.8,0.6c-0.3,0.2-0.7,0.3-1,0.4c0.2,0.1,0.3,0.2,0.4,0.4L157.8,74.4z M153.2,69.3
			c0.4,0,0.7,0,1-0.1s0.6-0.2,0.8-0.4c0.2-0.2,0.4-0.4,0.5-0.6c0.1-0.2,0.2-0.5,0.2-0.8c0-0.6-0.2-1-0.6-1.4s-1-0.5-1.8-0.5h-1.5
			v3.8H153.2z M148.6,74.4h-1.1c-0.1,0-0.2,0-0.3-0.1c-0.1-0.1-0.1-0.1-0.2-0.2l-0.9-2.4h-4.5l-0.9,2.4c0,0.1-0.1,0.2-0.2,0.2
			s-0.2,0.1-0.3,0.1h-1.1l4-10h1.4L148.6,74.4z M145.7,70.7l-1.6-4.1c0-0.1-0.1-0.3-0.1-0.4c-0.1-0.2-0.1-0.3-0.1-0.5
			c-0.1,0.4-0.2,0.7-0.3,0.9l-1.6,4.1H145.7z M139.4,65.5h-3.2v8.9h-1.4v-8.9h-3.3v-1.1h7.9V65.5z M319.9,43.4v10h-1.4v-4.6h-5.4
			v4.6h-1.4v-10h1.4v4.5h5.4v-4.5H319.9z M309.8,44.5h-3.2v8.9h-1.4v-8.9h-3.3v-1.1h7.9V44.5z M299.9,53.4h-1.4v-10h1.4V53.4z
			 M296.6,43.4l-3.1,10h-1.2l-2.5-7.7c0-0.1,0-0.2-0.1-0.2l-0.1-0.3c0,0.1,0,0.2-0.1,0.3c0,0.1,0,0.2-0.1,0.2l-2.6,7.7h-1.2l-3.1-10
			h1.1c0.1,0,0.2,0,0.3,0.1s0.1,0.1,0.2,0.2l2.1,7c0,0.1,0.1,0.3,0.1,0.4c0,0.1,0.1,0.3,0.1,0.5c0-0.2,0.1-0.3,0.1-0.5
			s0.1-0.3,0.1-0.4l2.4-7c0-0.1,0.1-0.2,0.2-0.2c0.1-0.1,0.2-0.1,0.3-0.1h0.4c0.1,0,0.2,0,0.3,0.1s0.1,0.1,0.2,0.2l2.4,7
			c0,0.1,0.1,0.3,0.1,0.4s0.1,0.3,0.1,0.4c0-0.2,0-0.3,0.1-0.4c0-0.1,0.1-0.3,0.1-0.4l2.1-7c0-0.1,0.1-0.2,0.2-0.2
			c0.1-0.1,0.2-0.1,0.3-0.1H296.6z M276.6,43.4v10h-0.7c-0.1,0-0.2,0-0.3-0.1s-0.1-0.1-0.2-0.2l-5.8-7.6c0,0.1,0,0.2,0,0.3
			c0,0.1,0,0.2,0,0.3v7.1h-1.2v-10h0.7c0.1,0,0.1,0,0.2,0c0,0,0.1,0,0.1,0c0,0,0.1,0,0.1,0.1c0,0,0.1,0.1,0.1,0.1l5.8,7.6
			c0-0.1,0-0.2,0-0.4c0-0.1,0-0.2,0-0.3v-7.1H276.6z M265.4,53.4h-1.4v-10h1.4V53.4z M261.5,48.6v3.9c-0.5,0.4-1,0.6-1.6,0.8
			c-0.6,0.2-1.2,0.3-1.9,0.3c-0.8,0-1.5-0.1-2.2-0.4c-0.6-0.2-1.2-0.6-1.7-1s-0.8-1-1.1-1.6c-0.2-0.6-0.4-1.3-0.4-2.1
			c0-0.8,0.1-1.5,0.4-2.1c0.2-0.6,0.6-1.2,1-1.6s1-0.8,1.6-1c0.6-0.2,1.3-0.4,2.1-0.4c0.4,0,0.8,0,1.1,0.1c0.3,0.1,0.7,0.1,0.9,0.3
			c0.3,0.1,0.6,0.2,0.8,0.4c0.2,0.2,0.5,0.3,0.7,0.5l-0.4,0.6c-0.1,0.1-0.1,0.2-0.2,0.2c-0.1,0-0.2,0-0.3-0.1
			c-0.1-0.1-0.2-0.1-0.4-0.2c-0.1-0.1-0.3-0.2-0.5-0.3c-0.2-0.1-0.5-0.2-0.7-0.2c-0.3-0.1-0.6-0.1-1-0.1c-0.6,0-1.1,0.1-1.5,0.3
			c-0.5,0.2-0.8,0.4-1.2,0.8c-0.3,0.3-0.6,0.8-0.7,1.2c-0.2,0.5-0.3,1-0.3,1.6c0,0.6,0.1,1.2,0.3,1.7c0.2,0.5,0.4,0.9,0.8,1.3
			c0.3,0.3,0.7,0.6,1.2,0.8c0.5,0.2,1,0.3,1.6,0.3c0.5,0,0.9-0.1,1.2-0.2s0.7-0.3,1.1-0.4v-2.2h-1.6c-0.1,0-0.2,0-0.2-0.1
			c-0.1-0.1-0.1-0.1-0.1-0.2v-0.8H261.5z M251.2,52.3l0,1.1H245v-10h6.2v1.1h-4.8v3.3h3.9v1.1h-3.9v3.4H251.2z M238.6,43.4
			c0.6,0,1.1,0.1,1.6,0.2c0.4,0.1,0.8,0.3,1.1,0.5c0.3,0.2,0.5,0.5,0.6,0.8c0.1,0.3,0.2,0.7,0.2,1.1c0,0.2,0,0.5-0.1,0.7
			c-0.1,0.2-0.2,0.4-0.3,0.6c-0.2,0.2-0.3,0.4-0.6,0.5c-0.2,0.2-0.5,0.3-0.8,0.4c0.7,0.1,1.3,0.4,1.7,0.8c0.4,0.4,0.6,0.9,0.6,1.5
			c0,0.4-0.1,0.8-0.2,1.2s-0.4,0.7-0.7,0.9s-0.7,0.4-1.1,0.6c-0.4,0.1-0.9,0.2-1.5,0.2h-3.5v-10H238.6z M236.8,44.5v3.4h1.8
			c0.4,0,0.7,0,1-0.1c0.3-0.1,0.5-0.2,0.7-0.3c0.2-0.1,0.3-0.3,0.4-0.5c0.1-0.2,0.1-0.4,0.1-0.7c0-0.6-0.2-1-0.5-1.3
			c-0.4-0.3-0.9-0.4-1.7-0.4H236.8z M239,52.4c0.4,0,0.7,0,1-0.1c0.3-0.1,0.5-0.2,0.7-0.4c0.2-0.2,0.3-0.4,0.4-0.6s0.1-0.5,0.1-0.7
			c0-0.5-0.2-0.9-0.6-1.2c-0.4-0.3-0.9-0.5-1.7-0.5h-2.2v3.5H239z M228.4,45c0,0.1-0.1,0.1-0.1,0.2c0,0-0.1,0.1-0.2,0.1
			c-0.1,0-0.2,0-0.3-0.1s-0.2-0.2-0.4-0.3c-0.2-0.1-0.4-0.2-0.6-0.3s-0.5-0.1-0.8-0.1c-0.3,0-0.6,0-0.8,0.1
			c-0.2,0.1-0.4,0.2-0.6,0.3c-0.2,0.1-0.3,0.3-0.4,0.5c-0.1,0.2-0.1,0.4-0.1,0.6c0,0.3,0.1,0.5,0.2,0.7c0.1,0.2,0.3,0.3,0.5,0.5
			c0.2,0.1,0.5,0.2,0.8,0.3c0.3,0.1,0.6,0.2,0.9,0.3s0.6,0.2,0.9,0.3c0.3,0.1,0.5,0.3,0.8,0.5c0.2,0.2,0.4,0.4,0.5,0.7
			c0.1,0.3,0.2,0.6,0.2,1.1c0,0.4-0.1,0.9-0.2,1.2c-0.1,0.4-0.4,0.7-0.7,1c-0.3,0.3-0.6,0.5-1.1,0.7c-0.4,0.2-0.9,0.2-1.4,0.2
			c-0.7,0-1.2-0.1-1.8-0.4c-0.5-0.2-1-0.6-1.4-1l0.4-0.6c0-0.1,0.1-0.1,0.1-0.1c0.1,0,0.1-0.1,0.2-0.1c0.1,0,0.1,0,0.2,0.1
			c0.1,0,0.2,0.1,0.3,0.2c0.1,0.1,0.2,0.2,0.3,0.2c0.1,0.1,0.3,0.2,0.4,0.2c0.2,0.1,0.3,0.1,0.5,0.2c0.2,0,0.4,0.1,0.7,0.1
			c0.3,0,0.6,0,0.9-0.1c0.3-0.1,0.5-0.2,0.6-0.4s0.3-0.4,0.4-0.6c0.1-0.2,0.1-0.5,0.1-0.7c0-0.3-0.1-0.6-0.2-0.7
			c-0.1-0.2-0.3-0.4-0.5-0.5c-0.2-0.1-0.5-0.2-0.8-0.3c-0.3-0.1-0.6-0.2-0.9-0.3c-0.3-0.1-0.6-0.2-0.9-0.3c-0.3-0.1-0.5-0.3-0.8-0.5
			s-0.4-0.5-0.5-0.8c-0.1-0.3-0.2-0.7-0.2-1.1c0-0.4,0.1-0.7,0.2-1c0.1-0.3,0.3-0.6,0.6-0.9c0.3-0.3,0.6-0.5,1-0.6
			c0.4-0.2,0.8-0.2,1.3-0.2c0.6,0,1.1,0.1,1.5,0.3s0.9,0.4,1.2,0.8L228.4,45z M220.9,52.3l0,1.1h-6.2v-10h6.2v1.1H216v3.3h3.9v1.1
			H216v3.4H220.9z M211.6,43.4v10h-1.4v-4.6h-5.4v4.6h-1.4v-10h1.4v4.5h5.4v-4.5H211.6z M200.7,51.4c0.1,0,0.1,0,0.2,0.1l0.5,0.6
			c-0.4,0.5-0.9,0.8-1.5,1.1c-0.6,0.3-1.3,0.4-2.1,0.4c-0.7,0-1.4-0.1-2-0.4c-0.6-0.2-1.1-0.6-1.5-1c-0.4-0.5-0.7-1-1-1.6
			c-0.2-0.6-0.3-1.3-0.3-2.1c0-0.8,0.1-1.4,0.4-2.1c0.2-0.6,0.6-1.2,1-1.6c0.4-0.5,0.9-0.8,1.6-1.1c0.6-0.2,1.3-0.4,2-0.4
			c0.7,0,1.3,0.1,1.9,0.3c0.5,0.2,1,0.5,1.4,0.9l-0.4,0.6c0,0-0.1,0.1-0.1,0.1c0,0-0.1,0-0.2,0c-0.1,0-0.2,0-0.3-0.1
			c-0.1-0.1-0.3-0.2-0.5-0.3s-0.4-0.2-0.7-0.3c-0.3-0.1-0.7-0.1-1.1-0.1c-0.5,0-1,0.1-1.4,0.3c-0.4,0.2-0.8,0.4-1.1,0.8
			c-0.3,0.3-0.6,0.8-0.7,1.2c-0.2,0.5-0.3,1-0.3,1.7c0,0.6,0.1,1.2,0.3,1.7c0.2,0.5,0.4,0.9,0.7,1.2s0.7,0.6,1.1,0.8
			s0.9,0.3,1.4,0.3c0.3,0,0.6,0,0.8-0.1c0.2,0,0.5-0.1,0.7-0.2c0.2-0.1,0.4-0.2,0.6-0.3s0.3-0.3,0.5-0.4
			C200.5,51.4,200.6,51.4,200.7,51.4z M192.1,53.4H191c-0.1,0-0.2,0-0.3-0.1c-0.1-0.1-0.1-0.1-0.2-0.2l-0.9-2.4h-4.5l-0.9,2.4
			c0,0.1-0.1,0.2-0.2,0.2s-0.2,0.1-0.3,0.1h-1l4-10h1.4L192.1,53.4z M189.2,49.7l-1.6-4.1c0-0.1-0.1-0.3-0.1-0.4s-0.1-0.3-0.1-0.5
			c-0.1,0.4-0.2,0.7-0.3,0.9l-1.6,4.1H189.2z M181.5,52.3l0,1.1h-6.2v-10h6.2v1.1h-4.8v3.3h3.9v1.1h-3.9v3.4H181.5z M173.5,53.4
			h-1.2c-0.2,0-0.4-0.1-0.5-0.3l-2.6-3.6c-0.1-0.1-0.2-0.2-0.3-0.2s-0.2-0.1-0.4-0.1h-1v4.2h-1.4v-10h2.8c0.6,0,1.2,0.1,1.6,0.2
			c0.5,0.1,0.8,0.3,1.1,0.6c0.3,0.2,0.5,0.5,0.7,0.9c0.1,0.3,0.2,0.7,0.2,1.2c0,0.4-0.1,0.7-0.2,1c-0.1,0.3-0.3,0.6-0.5,0.8
			c-0.2,0.2-0.5,0.5-0.8,0.6c-0.3,0.2-0.7,0.3-1,0.4c0.2,0.1,0.3,0.2,0.4,0.4L173.5,53.4z M168.8,48.3c0.4,0,0.7,0,1-0.1
			c0.3-0.1,0.6-0.2,0.8-0.4c0.2-0.2,0.4-0.4,0.5-0.6c0.1-0.2,0.2-0.5,0.2-0.8c0-0.6-0.2-1-0.6-1.4s-1-0.5-1.8-0.5h-1.5v3.8H168.8z
			 M159.7,43.4c0.6,0,1.1,0.1,1.6,0.2c0.4,0.1,0.8,0.3,1.1,0.5s0.5,0.5,0.6,0.8c0.1,0.3,0.2,0.7,0.2,1.1c0,0.2,0,0.5-0.1,0.7
			c-0.1,0.2-0.2,0.4-0.3,0.6c-0.2,0.2-0.3,0.4-0.6,0.5c-0.2,0.2-0.5,0.3-0.8,0.4c0.7,0.1,1.3,0.4,1.7,0.8c0.4,0.4,0.6,0.9,0.6,1.5
			c0,0.4-0.1,0.8-0.2,1.2s-0.4,0.7-0.7,0.9s-0.7,0.4-1.1,0.6c-0.4,0.1-0.9,0.2-1.5,0.2h-3.5v-10H159.7z M157.9,44.5v3.4h1.8
			c0.4,0,0.7,0,1-0.1c0.3-0.1,0.5-0.2,0.7-0.3c0.2-0.1,0.3-0.3,0.4-0.5c0.1-0.2,0.1-0.4,0.1-0.7c0-0.6-0.2-1-0.5-1.3
			c-0.4-0.3-0.9-0.4-1.7-0.4H157.9z M160,52.4c0.4,0,0.7,0,1-0.1c0.3-0.1,0.5-0.2,0.7-0.4c0.2-0.2,0.3-0.4,0.4-0.6s0.1-0.5,0.1-0.7
			c0-0.5-0.2-0.9-0.6-1.2c-0.4-0.3-0.9-0.5-1.7-0.5h-2.2v3.5H160z M145.7,44.5V48h4.1v1.1h-4.1v4.3h-1.4v-10h6.2v1.1H145.7z
			 M140.5,48.4c0-0.6-0.1-1.2-0.3-1.7c-0.2-0.5-0.4-0.9-0.7-1.2s-0.7-0.6-1.1-0.8c-0.4-0.2-0.9-0.3-1.5-0.3c-0.5,0-1,0.1-1.5,0.3
			c-0.4,0.2-0.8,0.4-1.1,0.8s-0.5,0.8-0.7,1.2c-0.2,0.5-0.3,1-0.3,1.7c0,0.6,0.1,1.2,0.3,1.7c0.2,0.5,0.4,0.9,0.7,1.2
			s0.7,0.6,1.1,0.8c0.4,0.2,0.9,0.3,1.5,0.3c0.5,0,1-0.1,1.5-0.3c0.4-0.2,0.8-0.4,1.1-0.8s0.5-0.8,0.7-1.2
			C140.4,49.6,140.5,49,140.5,48.4z M141.9,48.4c0,0.8-0.1,1.4-0.4,2.1c-0.2,0.6-0.6,1.2-1,1.6c-0.4,0.5-1,0.8-1.6,1.1
			c-0.6,0.2-1.3,0.4-2,0.4c-0.7,0-1.4-0.1-2-0.4c-0.6-0.2-1.1-0.6-1.6-1.1c-0.4-0.5-0.8-1-1-1.6s-0.4-1.3-0.4-2.1s0.1-1.4,0.4-2.1
			s0.6-1.2,1-1.6c0.4-0.5,1-0.8,1.6-1.1s1.3-0.4,2-0.4c0.7,0,1.4,0.1,2,0.4c0.6,0.3,1.1,0.6,1.6,1.1c0.4,0.5,0.8,1,1,1.6
			C141.8,47,141.9,47.7,141.9,48.4z"/>
	</defs>
	<clipPath id="SVGID_4_">
		<use xlink:href="#SVGID_3_"  style="overflow:visible;"/>
	</clipPath>
	<g class="st7">
		<defs>
			<rect id="SVGID_5_" x="-498.7" y="-766.6" width="1440" height="1581"/>
		</defs>
		<clipPath id="SVGID_6_">
			<use xlink:href="#SVGID_5_"  style="overflow:visible;"/>
		</clipPath>
		<rect x="126.5" y="38.3" class="st8" width="198.3" height="41.3"/>
	</g>
</g>
<g>
	<defs>
		<rect id="SVGID_7_" x="4.3" y="3.7" width="109.8" height="108.2"/>
	</defs>
	<clipPath id="SVGID_8_">
		<use xlink:href="#SVGID_7_"  style="overflow:visible;"/>
	</clipPath>
	<g class="st9">
		<defs>
			<rect id="SVGID_9_" x="-498.7" y="-766.6" width="1440" height="1581"/>
		</defs>
		<clipPath id="SVGID_10_">
			<use xlink:href="#SVGID_9_"  style="overflow:visible;"/>
		</clipPath>
		<g class="st10">
			<g>
				<defs>
					<rect id="SVGID_11_" x="-0.7" y="0.4" width="120" height="117"/>
				</defs>
				<clipPath id="SVGID_12_">
					<use xlink:href="#SVGID_11_"  style="overflow:visible;"/>
				</clipPath>
				<g class="st11">
					<defs>
						<path id="SVGID_13_" d="M82.7,8.9c-17.8-8.3-37.8-6.3-53.2,3.5l4.2,6.5c13.2-8.4,30.4-10.1,45.6-3
							c23.5,10.9,33.6,38.6,22.5,61.7c-11.1,23.2-39.1,33.1-62.7,22.2S5.6,61.2,16.7,38c3.2-6.7,7.8-12.2,13.3-16.5l-4.9-6
							c-6.4,5-11.8,11.5-15.5,19.3c-12.9,27-1.2,59.3,26.2,72c27.4,12.7,60.1,1.2,73.1-25.9C121.8,53.9,110.1,21.6,82.7,8.9"/>
					</defs>
					<clipPath id="SVGID_14_">
						<use xlink:href="#SVGID_13_"  style="overflow:visible;"/>
					</clipPath>
					<g class="st12">
						<defs>
							<rect id="SVGID_15_" x="4.3" y="3.4" width="110" height="109"/>
						</defs>
						<clipPath id="SVGID_16_">
							<use xlink:href="#SVGID_15_"  style="overflow:visible;"/>
						</clipPath>
						<rect x="-0.7" y="-1.3" class="st13" width="119.8" height="118.2"/>
					</g>
				</g>
			</g>
		</g>
	</g>
</g>
<g>
	<defs>
		<path id="SVGID_17_" d="M33.7,18.9l-4.2-6.5c-1.5,1-3,2-4.4,3.1l4.9,6C31.2,20.6,32.4,19.7,33.7,18.9"/>
	</defs>
	<clipPath id="SVGID_18_">
		<use xlink:href="#SVGID_17_"  style="overflow:visible;"/>
	</clipPath>
	<g class="st14">
		<defs>
			<rect id="SVGID_19_" x="-498.7" y="-766.6" width="1440" height="1581"/>
		</defs>
		<clipPath id="SVGID_20_">
			<use xlink:href="#SVGID_19_"  style="overflow:visible;"/>
		</clipPath>
		<rect x="20.1" y="7.4" class="st15" width="18.6" height="19.1"/>
	</g>
</g>
</svg>
