<svg width="739" height="113" viewBox="111 1264 739 113" version="1.1" xmlns="http://www.w3.org/2000/svg" xmlns:xlink="http://www.w3.org/1999/xlink">
    <defs>
        <path d="M0.634967742,5.8085625 C0.634967742,8.4849375 2.75948387,10.6543125 5.37932258,10.6543125 C8.00035484,10.6543125 10.124871,8.4849375 10.124871,5.8085625 C10.124871,3.13340625 8.00035484,0.96403125 5.37932258,0.96403125 C2.75948387,0.96403125 0.634967742,3.13340625 0.634967742,5.8085625 Z" id="path-1"></path>
        <polygon id="path-3" points="0.179554264 26.272551 18.120155 26.272551 18.120155 0.0764770076 0.179554264 0.0764770076 0.179554264 26.272551"></polygon>
        <polygon id="path-5" points="1.64940476 1.66978781 1.64940476 0.202346411 0.202663344 0.202346411 0.202663344 1.66978781 1.64940476 1.66978781"></polygon>
    </defs>
    <g id="Group-9" stroke="none" stroke-width="1" fill="none" fill-rule="evenodd" transform="translate(111.000000, 1265.000000)">
        <text id="Incoming-Mail-Copy-4" font-family="lato" font-size="12" font-weight="normal" line-spacing="18" letter-spacing="0.75" fill="#666666">
            <tspan x="10.606" y="70">Incoming Mai</tspan>
            <tspan x="90.562" y="70">l</tspan>
        </text>
        <text id="Block-Targeted-Phish-Copy-4" font-family="lato" font-size="12" font-weight="normal" line-spacing="18" letter-spacing="0.75" fill="#666666">
            <tspan x="244.075" y="70">Block </tspan>
            <tspan x="207.523" y="88">Targeted Phishing </tspan>
            <tspan x="239.152" y="106">Attack</tspan>
            <tspan x="276.652" y="106">s</tspan>
        </text>
        <text id="Mailbox-Anti-Spam,-A" font-family="lato" font-size="12" font-weight="normal" line-spacing="18" letter-spacing="0.75" fill="#666666">
            <tspan x="466.441" y="70">Mailbox </tspan>
            <tspan x="426.079" y="88">Anti-Spam, Anti-Viru</tspan>
            <tspan x="548.725" y="88">s</tspan>
        </text>
        <text id="User-Inbox-Copy-4" font-family="lato" font-size="12" font-weight="normal" line-spacing="18" letter-spacing="0.75" fill="#666666">
            <tspan x="668.263" y="70">User Inbo</tspan>
            <tspan x="725.761" y="70">x</tspan>
        </text>
        <g id="Group-6" transform="translate(23.000000, 7.000000)">
            <polygon id="Fill-1" fill="#FFFFFF" points="12 25.832625 46.9506774 25.832625 46.9506774 0 12 0"></polygon>
            <polygon id="Stroke-2" stroke="#6D6E71" stroke-linecap="round" stroke-linejoin="round" points="12.0336129 25.9146875 46.9842903 25.9146875 46.9842903 0.0820625 12.0336129 0.0820625"></polygon>
            <polygon id="Stroke-6" stroke="#6D6E71" stroke-linecap="round" stroke-linejoin="round" points="46.9842903 25.9154187 12.0336129 25.9154187 25.8930968 12.9991062 33.1248065 12.9991062"></polygon>
            <polygon id="Stroke-8" stroke="#6D6E71" stroke-linecap="round" stroke-linejoin="round" points="12.0333742 0.08255 46.9840516 0.08255 33.1245677 13.0000812 25.8928581 13.0000812"></polygon>
            <g id="Group-5" transform="translate(0.000000, 5.000000)" stroke="#6D6E71" stroke-linecap="round" stroke-linejoin="round">
                <path d="M4,0 L8.06144444,0" id="Stroke-3-Copy"></path>
                <path d="M0,14 L4.06144444,14" id="Stroke-4-Copy"></path>
                <path d="M2,7 L6.06144444,7" id="Stroke-6-Copy"></path>
            </g>
        </g>
        <g id="Page-1-Copy-31" transform="translate(683.000000, 0.000000)">
            <polygon id="Fill-1" fill="#FFFFFF" points="0.0336129032 38.9146875 34.9842903 38.9146875 34.9842903 13.0820625 0.0336129032 13.0820625"></polygon>
            <polygon id="Stroke-2" stroke="#6D6E71" stroke-linecap="round" stroke-linejoin="round" points="0.0336129032 38.9146875 34.9842903 38.9146875 34.9842903 13.0820625 0.0336129032 13.0820625"></polygon>
            <polygon id="Stroke-4" stroke="#6D6E71" stroke-linecap="round" stroke-linejoin="round" points="34.9842903 13.08255 0.0336129032 13.08255 13.8930968 0.1662375 21.1248065 0.1662375"></polygon>
            <polygon id="Stroke-6" stroke="#6D6E71" stroke-linecap="round" stroke-linejoin="round" points="34.9842903 38.9154187 0.0336129032 38.9154187 13.8930968 25.9991062 21.1248065 25.9991062"></polygon>
            <polygon id="Stroke-8" stroke="#6D6E71" stroke-linecap="round" stroke-linejoin="round" points="0.0333741935 13.08255 34.9840516 13.08255 21.1245677 26.0000812 13.8928581 26.0000812"></polygon>
            <path d="M17.5088323,17.9289094 C20.1298645,17.9289094 22.2543806,15.7595344 22.2543806,13.0819406 C22.2543806,10.4067844 20.1298645,8.23740937 17.5088323,8.23740937 C14.8878,8.23740937 12.7632839,10.4067844 12.7632839,13.0819406 C12.7632839,15.7595344 14.8878,17.9289094 17.5088323,17.9289094" id="Fill-9" fill="#FFFFFF"></path>
            <g id="Group-13" transform="translate(12.129032, 7.273500)">
                <mask id="mask-2" fill="white">
                    <use xlink:href="#path-1"></use>
                </mask>
                <g id="Clip-12"></g>
                <polygon id="Stroke-11" stroke="#6D6E71" stroke-width="1.21" stroke-linecap="round" stroke-linejoin="round" mask="url(#mask-2)" points="-763.274194 393.046875 559.272903 393.046875 559.272903 -567.289125 -763.274194 -567.289125"></polygon>
            </g>
            <g id="Group-18" transform="translate(12.129032, 7.273500)" stroke="#6D6E71" stroke-width="1.21" stroke-linecap="round" stroke-linejoin="round">
                <path d="M5.3798,10.6554094 C8.00083226,10.6554094 10.1253484,8.48603437 10.1253484,5.80844062 C10.1253484,3.13328437 8.00083226,0.963909375 5.3798,0.963909375 C2.75876774,0.963909375 0.634251613,3.13328437 0.634251613,5.80844062 C0.634251613,8.48603437 2.75876774,10.6554094 5.3798,10.6554094 Z" id="Stroke-14"></path>
                <polyline id="Stroke-16" points="3.00726452 5.63050312 4.79878065 7.22340937 7.7528129 3.99250312"></polyline>
            </g>
        </g>
        <g id="Page-1-Copy-32" transform="translate(148.000000, 19.500000) rotate(270.000000) translate(-148.000000, -19.500000) translate(144.500000, -0.500000)" stroke="#6D6E71" stroke-linecap="round" stroke-linejoin="round">
            <path d="M3,0 L3,40" id="Stroke-1"></path>
            <polyline id="Stroke-3" points="6.097 36 3.0485 39.696 0 36"></polyline>
        </g>
        <g id="Page-1-Copy-33" transform="translate(376.000000, 19.500000) rotate(270.000000) translate(-376.000000, -19.500000) translate(372.500000, -0.500000)" stroke="#6D6E71" stroke-linecap="round" stroke-linejoin="round">
            <path d="M3,1.13686838e-13 L3,40" id="Stroke-1"></path>
            <polyline id="Stroke-3" points="6.097 36 3.0485 39.696 2.27373675e-13 36"></polyline>
        </g>
        <g id="Page-1-Copy-34" transform="translate(602.000000, 19.500000) rotate(270.000000) translate(-602.000000, -19.500000) translate(598.500000, -0.500000)" stroke="#6D6E71" stroke-linecap="round" stroke-linejoin="round">
            <path d="M3,0 L3,40" id="Stroke-1"></path>
            <polyline id="Stroke-3" points="6.097 36 3.0485 39.696 -2.27373675e-13 36"></polyline>
        </g>
        <g id="Page-1-Copy-29" transform="translate(213.000000, 6.000000)">
            <path d="M34.7208292,15.2980288 L38.3392123,15.2980288 L36.5389632,10.473433 L34.7208292,15.2980288 Z M30.5258956,20.2575699 L35.341621,7.96201601 L37.73607,7.96201601 L42.5517954,20.2575699 L40.2105302,20.2575699 L39.1019061,17.2870997 L33.9757849,17.2870997 L32.8673962,20.2575699 L30.5258956,20.2575699 Z" id="Fill-1" fill="#272929"></path>
            <g id="Group-13" transform="translate(11.531008, 0.162412)">
                <path d="M35.1535714,13.7314921 L37.5659053,13.7314921 C38.3048311,13.7314921 38.8844408,13.5972633 39.3040282,13.3290444 C39.7238511,13.0610644 39.9337625,12.5544818 39.9337625,11.8095356 C39.9337625,11.0528861 39.7238511,10.5434375 39.3040282,10.2811896 C38.8844408,10.0191806 38.3048311,9.88781789 37.5659053,9.88781789 L35.1535714,9.88781789 L35.1535714,13.7314921 Z M32.9718577,20.0951816 L32.9718577,7.79962776 L37.6237957,7.79962776 C39.0439922,7.79962776 40.1476744,8.14140977 40.9346069,8.82497378 C41.7217746,9.50853779 42.1154762,10.485399 42.1154762,11.7560351 C42.1154762,13.629268 41.2285299,14.8406714 39.4548726,15.3892901 L42.6390781,20.0951816 L40.0050664,20.0951816 L37.1136074,15.7566281 L35.1535714,15.7566281 L35.1535714,20.0951816 L32.9718577,20.0951816 Z" id="Fill-2" fill="#272929"></path>
                <polygon id="Fill-4" fill="#272929" points="45.0471761 20.0950622 45.0471761 7.79950834 53.1087625 7.79950834 53.1087625 9.78905698 47.2288898 9.78905698 47.2288898 12.9033096 52.3281838 12.9033096 52.3281838 14.9914998 47.2288898 14.9914998 47.2288898 18.1059913 53.1087625 18.1059913 53.1087625 20.0950622"></polygon>
                <path d="M59.3765947,15.1356166 L62.9949779,15.1356166 L61.1947287,10.3110209 L59.3765947,15.1356166 Z M55.1816611,20.0951578 L59.9973865,7.79960388 L62.3918355,7.79960388 L67.2075609,20.0951578 L64.8662957,20.0951578 L63.7576717,17.1246876 L58.6315504,17.1246876 L57.5231617,20.0951578 L55.1816611,20.0951578 Z" id="Fill-6" fill="#272929"></path>
                <polygon id="Fill-8" fill="#272929" points="74.9090739 11.6700761 74.9090739 9.31175638 77.2602229 7.79965165 79.2459095 7.79965165 79.2459095 20.0949667 77.0641957 20.0949667 77.0641957 10.3289818"></polygon>
                <g id="Group-12">
                    <mask id="mask-4" fill="white">
                        <use xlink:href="#path-3"></use>
                    </mask>
                    <g id="Clip-11"></g>
                    <polygon id="Fill-10" fill="#2B96ED" mask="url(#mask-4)" points="3.28680786 0.0764770076 0.179554264 5.61210351 11.8901163 26.2725988 18.120155 26.2725988"></polygon>
                </g>
            </g>
            <polygon id="Fill-14" points="11.710562 5.77446788 23.421124 26.4349632 29.6511628 26.4349632 14.8178156 0.239080214"></polygon>
            <g id="Group-23" transform="translate(0.000000, 5.655764)">
                <polygon id="Fill-16" fill="#1DE9B6" points="4.70653376e-05 20.7791756 17.1756008 20.7791756 8.59064784 5.64738038"></polygon>
                <polygon id="Fill-18" fill="#1EC5DA" points="8.59406008 5.56213789 17.1754831 20.7791995 23.4210534 20.7791995 11.7104914 0.116793431"></polygon>
                <g id="Group-22" transform="translate(92.012735, 12.897434)">
                    <mask id="mask-6" fill="white">
                        <use xlink:href="#path-5"></use>
                    </mask>
                    <g id="Clip-21"></g>
                    <path d="M0.79427464,0.922453151 L0.956414729,0.922453151 C1.00606866,0.922453151 1.04536822,0.913377179 1.0743134,0.895225234 C1.10325858,0.87707329 1.11784884,0.84220245 1.11784884,0.790612713 C1.11784884,0.739261818 1.10325858,0.704390977 1.0743134,0.68576135 C1.04536822,0.667370564 1.00606866,0.658055751 0.956414729,0.658055751 L0.79427464,0.658055751 L0.79427464,0.922453151 Z M0.645312846,1.35380067 L0.645312846,0.518333548 L0.961827243,0.518333548 C1.0576052,0.518333548 1.13220377,0.541501161 1.18562292,0.58831407 C1.23904208,0.634649296 1.26586932,0.700808357 1.26586932,0.787030092 C1.26586932,0.915765592 1.20586102,0.997927025 1.08584441,1.03375323 L1.30187431,1.35380067 L1.12208472,1.35380067 L0.927469546,1.05978694 L0.79427464,1.05978694 L0.79427464,1.35380067 L0.645312846,1.35380067 Z M0.311148948,0.937261316 C0.311148948,1.1092271 0.371157254,1.25611455 0.491173865,1.37792365 C0.611190476,1.49973275 0.75591639,1.5606373 0.925586932,1.5606373 C1.09643411,1.5606373 1.241866,1.49973275 1.36188261,1.37792365 C1.48189922,1.25611455 1.54190753,1.1092271 1.54190753,0.937261316 C1.54190753,0.763623638 1.48189922,0.616019669 1.36188261,0.494210569 C1.241866,0.372401469 1.09643411,0.311496919 0.925586932,0.311496919 C0.75591639,0.311496919 0.611190476,0.372401469 0.491173865,0.494210569 C0.371157254,0.616019669 0.311148948,0.763623638 0.311148948,0.937261316 L0.311148948,0.937261316 Z M0.202663344,0.937261316 C0.202663344,0.733529625 0.273261351,0.560130788 0.414692691,0.417064806 C0.555888704,0.273998823 0.726265227,0.202346411 0.925586932,0.202346411 C1.12608527,0.202346411 1.29693245,0.273998823 1.43789313,0.417064806 C1.57885382,0.560130788 1.64945183,0.733529625 1.64945183,0.937261316 C1.64945183,1.13932112 1.57885382,1.31200343 1.43789313,1.45506941 C1.29693245,1.5981354 1.12608527,1.66978781 0.925586932,1.66978781 C0.726265227,1.66978781 0.555888704,1.5981354 0.414692691,1.45506941 C0.273261351,1.31200343 0.202663344,1.13932112 0.202663344,0.937261316 L0.202663344,0.937261316 Z" id="Fill-20" fill="#272929" mask="url(#mask-6)"></path>
                </g>
            </g>
        </g>
        <g id="Group-8" transform="translate(452.000000, 7.000000)">
            <g id="Page-1-Copy-35" transform="translate(48.000000, 0.000000)" stroke="#979797">
                <polygon id="Fill-1" points="15.6845965 0.15625226 6.47398845e-05 2.77666286 6.47398845e-05 23.2995648 15.6845965 25.9199754 15.6845965 20.8958282 15.6845965 18.9845324 15.6845965 13.7709127 15.6845965 12.6353285 15.6845965 7.0918516 15.6845965 5.18039948"></polygon>
                <path d="M26.5997896,5.18046201 L17.164437,5.18046201 L17.164437,7.09191413 L17.5659861,7.09191413 C17.658726,7.09191413 17.7477434,7.12755746 17.8132925,7.19087129 L19.2226798,8.5540726 C19.3180092,8.64646388 19.3180092,8.79591577 19.2225179,8.88815072 L18.7131769,9.38012257 C18.6176855,9.47251385 18.4627954,9.47251385 18.3671422,9.38012257 L17.7312347,8.77402951 C17.7181249,8.76152307 17.7004832,8.7544882 17.6821942,8.7544882 L17.164437,8.7544882 L17.164437,12.4194987 C18.1348879,13.26509 18.9554659,13.8947889 18.7063792,14.1514835 C18.5451769,14.3175064 17.9202751,14.0468984 17.164437,13.6021384 L17.164437,17.3218645 L17.4052694,17.3218645 C19.157778,16.0604343 20.5873965,13.767536 21.0153272,14.1552354 C21.5202983,14.6125019 18.129385,18.9294103 17.7108416,18.9845949 L17.164437,18.9845949 L17.164437,20.8958907 L26.5997896,20.8958907 C27.3719746,20.8958907 27.9980092,20.291361 27.9980092,19.5455085 L27.9980092,6.53100056 C27.9980092,5.7851481 27.3719746,5.18046201 26.5997896,5.18046201 L26.5997896,5.18046201 Z" id="Fill-2"></path>
            </g>
            <polygon id="Path" fill="#979797" points="52 17.457162 52 6.59677483 57.7697705 6 57.7697705 8.19705871 54.2535081 8.43567401 54.2535081 10.9487837 57.5255085 10.8678784 57.5255085 13.0479044 54.2535081 13.0128928 54.2535081 15.596972 58 15.8032567 58 18"></polygon>
            <path d="M75,9.84830623 L75,10.4605848 L75,12.1441337 C75,12.2438918 74.9598891,12.3393051 74.8884637,12.4096919 L73.3545753,13.9230959 C73.2506038,14.0256347 73.0822437,14.0256347 72.9784481,13.9230959 L72.4249887,13.3761641 C72.3210171,13.2734514 72.3210171,13.1071299 72.4249887,13.0045911 L73.1070491,12.3217519 C73.1211231,12.3076745 73.1290397,12.2887309 73.1290397,12.2689183 L73.1290397,9.84830623 L70.9795905,9.84830623 C69.0746767,11.2506554 67.5207329,13.7997017 67.0555878,13.3686909 C66.5067024,12.8603415 70.1925029,8.06134952 70.6474445,8 L73.1290397,8 L74.6200024,8 C74.8298807,8 75,8.16805944 75,8.37522267 L75,9.84830623 Z" id="Path" fill="#979797"></path>
            <path d="M74,18.1288638 L74,19.6200024 C74,19.8298807 73.8319412,20 73.6246049,20 L72.1517005,20 L71.5392503,20 L69.8557075,20 C69.7561235,20 69.6605368,19.9598891 69.5901502,19.8884637 L68.0767518,18.3543994 C67.9743871,18.2506038 67.9743871,18.0822437 68.0769256,17.9784481 L68.6238554,17.4248127 C68.7263939,17.3210171 68.8928886,17.3210171 68.9954271,17.4248127 L69.6782638,18.1070491 C69.6923411,18.1211231 69.7112847,18.1288638 69.7309234,18.1288638 L72.1517005,18.1288638 L72.1517005,15.9794146 C70.7493564,14.0746767 68.2003194,12.5207329 68.6311548,12.0555878 C69.1395023,11.5067024 73.9386507,15.1925029 74,15.6474445 L74,18.1288638 Z" id="Path" fill="#979797"></path>
            <g id="Page-1" transform="translate(0.000000, 2.000000)">
                <path d="M25.182875,5.640852 L4.69920833,20.977572" id="Stroke-1" stroke="#979797"></path>
                <path d="M3.53276389,5.640852 L24.015625,20.977572" id="Stroke-3" stroke="#979797"></path>
                <path d="M26.5119611,0.42042 L26.2437111,0.42042 L26.2243778,0.4347 C26.17685,0.43134 26.1317389,0.42042 26.0842111,0.42042 L26.0020444,0.42042 L24.8412389,1.29486 L24.7550444,1.35954 L14.3577389,9.18918 L3.96043333,1.35954 L3.87423889,1.29486 L2.71343333,0.42042 L2.63126667,0.42042 C2.58373889,0.42042 2.53862778,0.43134 2.49190556,0.4347 L2.47257222,0.42042 L2.20351667,0.42042 C1.20865556,0.42042 0.402294444,1.25118 0.402294444,2.27682 L0.402294444,3.28398 L0.402294444,19.12134 C0.402294444,19.30278 0.428072222,19.47834 0.476405556,19.6455 C0.694711111,20.41578 1.38507222,20.97774 2.20351667,20.97774 L3.53268333,20.97774 L3.53268333,5.64102 L11.3014611,11.49246 L13.8558778,13.41522 L14.3263222,13.77054 L14.3577389,13.74618 L14.3891556,13.77054 L14.8604056,13.41522 L17.4140167,11.49246 L25.1827944,5.64102 L25.1827944,20.97774 L26.5119611,20.97774 C27.3312111,20.97774 28.0207667,20.41578 28.2398778,19.6455 C28.2882111,19.47834 28.3123778,19.30278 28.3123778,19.12134 L28.3123778,3.28398 L28.3123778,2.27682 C28.3123778,1.25118 27.5068222,0.42042 26.5119611,0.42042" id="Fill-5" fill="#979797"></path>
                <path d="M26.5598917,20.977404 L2.15558611,20.977404 C1.18730833,20.977404 0.402697222,20.159244 0.402697222,19.149564 L0.402697222,2.247924 C0.402697222,1.238244 1.18730833,0.420084 2.15558611,0.420084 L26.5598917,0.420084 C27.5281694,0.420084 28.3127806,1.238244 28.3127806,2.247924 L28.3127806,19.149564 C28.3127806,20.159244 27.5281694,20.977404 26.5598917,20.977404 Z" id="Stroke-7" stroke="#979797"></path>
            </g>
        </g>
    </g>
</svg>