<svg width="152" height="574" viewBox="84 2179 152 574" version="1.1" xmlns="http://www.w3.org/2000/svg" xmlns:xlink="http://www.w3.org/1999/xlink">
    <defs>
        <path d="M0.634967742,5.8085625 C0.634967742,8.4849375 2.75948387,10.6543125 5.37932258,10.6543125 C8.00035484,10.6543125 10.124871,8.4849375 10.124871,5.8085625 C10.124871,3.13340625 8.00035484,0.96403125 5.37932258,0.96403125 C2.75948387,0.96403125 0.634967742,3.13340625 0.634967742,5.8085625 Z" id="path-1"></path>
        <polygon id="path-3" points="0.168280702 24.7747748 16.9824561 24.7747748 16.9824561 0.0721171171 0.168280702 0.0721171171 0.168280702 24.7747748"></polygon>
        <polygon id="path-5" points="1.54584461 1.57459459 1.54584461 0.190810811 0.189938847 0.190810811 0.189938847 1.57459459 1.54584461 1.57459459"></polygon>
    </defs>
    <g id="Group" stroke="none" stroke-width="1" fill="none" fill-rule="evenodd" transform="translate(84.000000, 2180.000000)">
        <text id="Mailbox-Anti-Spam,-A-Copy" font-family="lato" font-size="12" font-weight="normal" line-spacing="18" letter-spacing="0.75" fill="#666666">
            <tspan x="52.441" y="386">Mailbox </tspan>
            <tspan x="12.079" y="404">Anti-Spam, Anti-Viru</tspan>
            <tspan x="134.725" y="404">s</tspan>
        </text>
        <text id="User-Inbox-Copy-5" font-family="lato" font-size="12" font-weight="normal" line-spacing="18" letter-spacing="0.75" fill="#666666">
            <tspan x="44.263" y="567">User Inbo</tspan>
            <tspan x="101.761" y="567">x</tspan>
        </text>
        <g id="Page-1-Copy-33" transform="translate(59.000000, 500.000000)">
            <polygon id="Fill-1" fill="#FFFFFF" points="0.0336129032 38.9146875 34.9842903 38.9146875 34.9842903 13.0820625 0.0336129032 13.0820625"></polygon>
            <polygon id="Stroke-2" stroke="#6D6E71" stroke-linecap="round" stroke-linejoin="round" points="0.0336129032 38.9146875 34.9842903 38.9146875 34.9842903 13.0820625 0.0336129032 13.0820625"></polygon>
            <polygon id="Stroke-4" stroke="#6D6E71" stroke-linecap="round" stroke-linejoin="round" points="34.9842903 13.08255 0.0336129032 13.08255 13.8930968 0.1662375 21.1248065 0.1662375"></polygon>
            <polygon id="Stroke-6" stroke="#6D6E71" stroke-linecap="round" stroke-linejoin="round" points="34.9842903 38.9154187 0.0336129032 38.9154187 13.8930968 25.9991062 21.1248065 25.9991062"></polygon>
            <polygon id="Stroke-8" stroke="#6D6E71" stroke-linecap="round" stroke-linejoin="round" points="0.0333741935 13.08255 34.9840516 13.08255 21.1245677 26.0000812 13.8928581 26.0000812"></polygon>
            <path d="M17.5088323,17.9289094 C20.1298645,17.9289094 22.2543806,15.7595344 22.2543806,13.0819406 C22.2543806,10.4067844 20.1298645,8.23740937 17.5088323,8.23740937 C14.8878,8.23740937 12.7632839,10.4067844 12.7632839,13.0819406 C12.7632839,15.7595344 14.8878,17.9289094 17.5088323,17.9289094" id="Fill-9" fill="#FFFFFF"></path>
            <g id="Group-13" transform="translate(12.129032, 7.273500)">
                <mask id="mask-2" fill="white">
                    <use xlink:href="#path-1"></use>
                </mask>
                <g id="Clip-12"></g>
                <polygon id="Stroke-11" stroke="#6D6E71" stroke-width="1.21" stroke-linecap="round" stroke-linejoin="round" mask="url(#mask-2)" points="-763.274194 393.046875 559.272903 393.046875 559.272903 -567.289125 -763.274194 -567.289125"></polygon>
            </g>
            <g id="Group-18" transform="translate(12.129032, 7.273500)" stroke="#6D6E71" stroke-width="1.21" stroke-linecap="round" stroke-linejoin="round">
                <path d="M5.3798,10.6554094 C8.00083226,10.6554094 10.1253484,8.48603437 10.1253484,5.80844062 C10.1253484,3.13328437 8.00083226,0.963909375 5.3798,0.963909375 C2.75876774,0.963909375 0.634251613,3.13328437 0.634251613,5.80844062 C0.634251613,8.48603437 2.75876774,10.6554094 5.3798,10.6554094 Z" id="Stroke-14"></path>
                <polyline id="Stroke-16" points="3.00726452 5.63050312 4.79878065 7.22340937 7.7528129 3.99250312"></polyline>
            </g>
        </g>
        <text id="Incoming-Mail-Copy-5" font-family="lato" font-size="12" font-weight="normal" line-spacing="18" letter-spacing="0.75" fill="#666666">
            <tspan x="34.606" y="53">Incoming Mai</tspan>
            <tspan x="114.562" y="53">l</tspan>
        </text>
        <text id="Block-Targeted-Phish-Copy-5" font-family="lato" font-size="12" font-weight="normal" line-spacing="18" letter-spacing="0.75" fill="#666666">
            <tspan x="60.075" y="201">Block </tspan>
            <tspan x="23.523" y="219">Targeted Phishing </tspan>
            <tspan x="55.152" y="237">Attack</tspan>
            <tspan x="92.652" y="237">s</tspan>
        </text>
        <g id="Page-1-Copy-34" transform="translate(73.000000, 84.000000)" stroke="#6D6E71" stroke-linecap="round" stroke-linejoin="round">
            <path d="M3,0 L3,40" id="Stroke-1"></path>
            <polyline id="Stroke-3" points="6.097 36 3.0485 39.696 0 36"></polyline>
        </g>
        <g id="Page-1-Copy-41" transform="translate(73.000000, 268.000000)" stroke="#6D6E71" stroke-linecap="round" stroke-linejoin="round">
            <path d="M3,0 L3,40" id="Stroke-1"></path>
            <polyline id="Stroke-3" points="6.097 36 3.0485 39.696 0 36"></polyline>
        </g>
        <g id="Page-1-Copy-47" transform="translate(73.000000, 435.000000)" stroke="#6D6E71" stroke-linecap="round" stroke-linejoin="round">
            <path d="M3,0 L3,40" id="Stroke-1"></path>
            <polyline id="Stroke-3" points="6.097 36 3.0485 39.696 0 36"></polyline>
        </g>
        <g id="Page-1-Copy-30" transform="translate(32.000000, 149.000000)">
            <path d="M32.5408341,14.4259009 L35.9320321,14.4259009 L34.244814,9.87635135 L32.5408341,14.4259009 Z M28.6092852,19.1027027 L33.1226486,7.50810811 L35.3667589,7.50810811 L39.8801223,19.1027027 L37.6858566,19.1027027 L36.6468391,16.3015766 L31.8425684,16.3015766 L30.8037714,19.1027027 L28.6092852,19.1027027 Z" id="Fill-1" fill="#272929"></path>
            <g id="Group-13" transform="translate(10.807018, 0.153153)">
                <path d="M32.946406,12.9486712 L35.2072782,12.9486712 C35.8998095,12.9486712 36.4430276,12.8220946 36.8362707,12.5691667 C37.2297343,12.316464 37.4264662,11.8387613 37.4264662,11.1362838 C37.4264662,10.4227703 37.2297343,9.94236486 36.8362707,9.69506757 C36.4430276,9.4479955 35.8998095,9.32412162 35.2072782,9.32412162 L32.946406,9.32412162 L32.946406,12.9486712 Z M30.9016742,18.9495721 L30.9016742,7.35497748 L35.2615338,7.35497748 C36.5925614,7.35497748 37.6269474,7.67727477 38.3644712,8.32186937 C39.1022155,8.96646396 39.471198,9.88763514 39.471198,11.0858333 C39.471198,12.8522748 38.6399398,13.9946171 36.9776441,14.5119595 L39.9619248,18.9495721 L37.4932932,18.9495721 L34.7833784,14.8583559 L32.946406,14.8583559 L32.946406,18.9495721 L30.9016742,18.9495721 Z" id="Fill-2" fill="#272929"></path>
                <polygon id="Fill-4" fill="#272929" points="42.2188271 18.9494595 42.2188271 7.35486486 49.7742556 7.35486486 49.7742556 9.23099099 44.2635589 9.23099099 44.2635589 12.1677027 49.0426867 12.1677027 49.0426867 14.1368468 44.2635589 14.1368468 44.2635589 17.0737838 49.7742556 17.0737838 49.7742556 18.9494595"></polygon>
                <path d="M55.6485534,14.2727477 L59.0397514,14.2727477 L57.3525333,9.7231982 L55.6485534,14.2727477 Z M51.7170045,18.9495495 L56.2303679,7.35495495 L58.4744782,7.35495495 L62.9878416,18.9495495 L60.7935759,18.9495495 L59.7545584,16.1484234 L54.9502877,16.1484234 L53.9114907,18.9495495 L51.7170045,18.9495495 Z" id="Fill-6" fill="#272929"></path>
                <polygon id="Fill-8" fill="#272929" points="70.2058045 11.0047748 70.2058045 8.7809009 72.4093333 7.355 74.2703459 7.355 74.2703459 18.9493694 72.225614 18.9493694 72.225614 9.74013514"></polygon>
                <g id="Group-12">
                    <mask id="mask-4" fill="white">
                        <use xlink:href="#path-3"></use>
                    </mask>
                    <g id="Clip-11"></g>
                    <polygon id="Fill-10" fill="#2B96ED" mask="url(#mask-4)" points="3.0804411 0.0721171171 0.168280702 5.29216216 11.1435789 24.7748198 16.9824561 24.7748198"></polygon>
                </g>
            </g>
            <polygon id="Fill-14" points="10.9752982 5.44527027 21.9505965 24.9279279 27.7894737 24.9279279 13.8874586 0.22545045"></polygon>
            <g id="Group-23" transform="translate(0.000000, 5.333333)">
                <polygon id="Fill-16" fill="#1DE9B6" points="4.41102757e-05 19.5945721 16.097207 19.5945721 8.05127218 5.32542793"></polygon>
                <polygon id="Fill-18" fill="#1EC5DA" points="8.05447018 5.24504505 16.0970967 19.5945946 21.9505303 19.5945946 10.9752321 0.110135135"></polygon>
                <g id="Group-22" transform="translate(86.235589, 12.162162)">
                    <mask id="mask-6" fill="white">
                        <use xlink:href="#path-5"></use>
                    </mask>
                    <g id="Clip-21"></g>
                    <path d="M0.744405013,0.869864865 L0.896364912,0.869864865 C0.942901253,0.869864865 0.979733333,0.861306306 1.00686115,0.844189189 C1.03398897,0.827072072 1.04766316,0.794189189 1.04766316,0.745540541 C1.04766316,0.697117117 1.03398897,0.664234234 1.00686115,0.646666667 C0.979733333,0.629324324 0.942901253,0.620540541 0.896364912,0.620540541 L0.744405013,0.620540541 L0.744405013,0.869864865 Z M0.60479599,1.27662162 L0.60479599,0.488783784 L0.901437594,0.488783784 C0.991202005,0.488783784 1.06111679,0.510630631 1.11118195,0.554774775 C1.16124712,0.598468468 1.18638997,0.660855856 1.18638997,0.742162162 C1.18638997,0.863558559 1.13014937,0.941036036 1.01766817,0.97481982 L1.22013434,1.27662162 L1.05163308,1.27662162 L0.869237093,0.999369369 L0.744405013,0.999369369 L0.744405013,1.27662162 L0.60479599,1.27662162 Z M0.291613033,0.883828829 C0.291613033,1.04599099 0.347853634,1.1845045 0.460334837,1.29936937 C0.57281604,1.41423423 0.708455138,1.47166667 0.867472682,1.47166667 C1.02759298,1.47166667 1.16389373,1.41423423 1.27637494,1.29936937 C1.38885614,1.1845045 1.44509674,1.04599099 1.44509674,0.883828829 C1.44509674,0.72009009 1.38885614,0.580900901 1.27637494,0.466036036 C1.16389373,0.351171171 1.02759298,0.293738739 0.867472682,0.293738739 C0.708455138,0.293738739 0.57281604,0.351171171 0.460334837,0.466036036 C0.347853634,0.580900901 0.291613033,0.72009009 0.291613033,0.883828829 L0.291613033,0.883828829 Z M0.189938847,0.883828829 C0.189938847,0.691711712 0.256104261,0.528198198 0.388655639,0.393288288 C0.520986466,0.258378378 0.680665664,0.190810811 0.867472682,0.190810811 C1.05538246,0.190810811 1.21550276,0.258378378 1.34761303,0.393288288 C1.47972331,0.528198198 1.54588872,0.691711712 1.54588872,0.883828829 C1.54588872,1.07436937 1.47972331,1.23720721 1.34761303,1.37211712 C1.21550276,1.50702703 1.05538246,1.57459459 0.867472682,1.57459459 C0.680665664,1.57459459 0.520986466,1.50702703 0.388655639,1.37211712 C0.256104261,1.23720721 0.189938847,1.07436937 0.189938847,0.883828829 L0.189938847,0.883828829 Z" id="Fill-20" fill="#272929" mask="url(#mask-6)"></path>
                </g>
            </g>
        </g>
        <g id="Group-6-Copy" transform="translate(46.000000, 0.000000)">
            <polygon id="Fill-1" fill="#FFFFFF" points="12 25.832625 46.9506774 25.832625 46.9506774 0 12 0"></polygon>
            <polygon id="Stroke-2" stroke="#6D6E71" stroke-linecap="round" stroke-linejoin="round" points="12.0336129 25.9146875 46.9842903 25.9146875 46.9842903 0.0820625 12.0336129 0.0820625"></polygon>
            <polygon id="Stroke-6" stroke="#6D6E71" stroke-linecap="round" stroke-linejoin="round" points="46.9842903 25.9154187 12.0336129 25.9154187 25.8930968 12.9991062 33.1248065 12.9991062"></polygon>
            <polygon id="Stroke-8" stroke="#6D6E71" stroke-linecap="round" stroke-linejoin="round" points="12.0333742 0.08255 46.9840516 0.08255 33.1245677 13.0000812 25.8928581 13.0000812"></polygon>
            <g id="Group-5" transform="translate(0.000000, 5.000000)" stroke="#6D6E71" stroke-linecap="round" stroke-linejoin="round">
                <path d="M4,0 L8.06144444,0" id="Stroke-3-Copy"></path>
                <path d="M0,14 L4.06144444,14" id="Stroke-4-Copy"></path>
                <path d="M2,7 L6.06144444,7" id="Stroke-6-Copy"></path>
            </g>
        </g>
        <g id="Group-Copy" transform="translate(38.000000, 333.000000)">
            <g id="Page-1-Copy-35" transform="translate(48.000000, 0.000000)" stroke="#979797">
                <polygon id="Fill-1" points="15.6845965 0.15625226 6.47398845e-05 2.77666286 6.47398845e-05 23.2995648 15.6845965 25.9199754 15.6845965 20.8958282 15.6845965 18.9845324 15.6845965 13.7709127 15.6845965 12.6353285 15.6845965 7.0918516 15.6845965 5.18039948"></polygon>
                <path d="M26.5997896,5.18046201 L17.164437,5.18046201 L17.164437,7.09191413 L17.5659861,7.09191413 C17.658726,7.09191413 17.7477434,7.12755746 17.8132925,7.19087129 L19.2226798,8.5540726 C19.3180092,8.64646388 19.3180092,8.79591577 19.2225179,8.88815072 L18.7131769,9.38012257 C18.6176855,9.47251385 18.4627954,9.47251385 18.3671422,9.38012257 L17.7312347,8.77402951 C17.7181249,8.76152307 17.7004832,8.7544882 17.6821942,8.7544882 L17.164437,8.7544882 L17.164437,12.4194987 C18.1348879,13.26509 18.9554659,13.8947889 18.7063792,14.1514835 C18.5451769,14.3175064 17.9202751,14.0468984 17.164437,13.6021384 L17.164437,17.3218645 L17.4052694,17.3218645 C19.157778,16.0604343 20.5873965,13.767536 21.0153272,14.1552354 C21.5202983,14.6125019 18.129385,18.9294103 17.7108416,18.9845949 L17.164437,18.9845949 L17.164437,20.8958907 L26.5997896,20.8958907 C27.3719746,20.8958907 27.9980092,20.291361 27.9980092,19.5455085 L27.9980092,6.53100056 C27.9980092,5.7851481 27.3719746,5.18046201 26.5997896,5.18046201 L26.5997896,5.18046201 Z" id="Fill-2"></path>
            </g>
            <polygon id="Path" fill="#979797" points="52 17.457162 52 6.59677483 57.7697705 6 57.7697705 8.19705871 54.2535081 8.43567401 54.2535081 10.9487837 57.5255085 10.8678784 57.5255085 13.0479044 54.2535081 13.0128928 54.2535081 15.596972 58 15.8032567 58 18"></polygon>
            <path d="M75,9.84830623 L75,10.4605848 L75,12.1441337 C75,12.2438918 74.9598891,12.3393051 74.8884637,12.4096919 L73.3545753,13.9230959 C73.2506038,14.0256347 73.0822437,14.0256347 72.9784481,13.9230959 L72.4249887,13.3761641 C72.3210171,13.2734514 72.3210171,13.1071299 72.4249887,13.0045911 L73.1070491,12.3217519 C73.1211231,12.3076745 73.1290397,12.2887309 73.1290397,12.2689183 L73.1290397,9.84830623 L70.9795905,9.84830623 C69.0746767,11.2506554 67.5207329,13.7997017 67.0555878,13.3686909 C66.5067024,12.8603415 70.1925029,8.06134952 70.6474445,8 L73.1290397,8 L74.6200024,8 C74.8298807,8 75,8.16805944 75,8.37522267 L75,9.84830623 Z" id="Path" fill="#979797"></path>
            <path d="M74,18.1288638 L74,19.6200024 C74,19.8298807 73.8319412,20 73.6246049,20 L72.1517005,20 L71.5392503,20 L69.8557075,20 C69.7561235,20 69.6605368,19.9598891 69.5901502,19.8884637 L68.0767518,18.3543994 C67.9743871,18.2506038 67.9743871,18.0822437 68.0769256,17.9784481 L68.6238554,17.4248127 C68.7263939,17.3210171 68.8928886,17.3210171 68.9954271,17.4248127 L69.6782638,18.1070491 C69.6923411,18.1211231 69.7112847,18.1288638 69.7309234,18.1288638 L72.1517005,18.1288638 L72.1517005,15.9794146 C70.7493564,14.0746767 68.2003194,12.5207329 68.6311548,12.0555878 C69.1395023,11.5067024 73.9386507,15.1925029 74,15.6474445 L74,18.1288638 Z" id="Path" fill="#979797"></path>
            <g id="Page-1" transform="translate(0.000000, 2.000000)">
                <path d="M25.182875,5.640852 L4.69920833,20.977572" id="Stroke-1" stroke="#979797"></path>
                <path d="M3.53276389,5.640852 L24.015625,20.977572" id="Stroke-3" stroke="#979797"></path>
                <path d="M26.5119611,0.42042 L26.2437111,0.42042 L26.2243778,0.4347 C26.17685,0.43134 26.1317389,0.42042 26.0842111,0.42042 L26.0020444,0.42042 L24.8412389,1.29486 L24.7550444,1.35954 L14.3577389,9.18918 L3.96043333,1.35954 L3.87423889,1.29486 L2.71343333,0.42042 L2.63126667,0.42042 C2.58373889,0.42042 2.53862778,0.43134 2.49190556,0.4347 L2.47257222,0.42042 L2.20351667,0.42042 C1.20865556,0.42042 0.402294444,1.25118 0.402294444,2.27682 L0.402294444,3.28398 L0.402294444,19.12134 C0.402294444,19.30278 0.428072222,19.47834 0.476405556,19.6455 C0.694711111,20.41578 1.38507222,20.97774 2.20351667,20.97774 L3.53268333,20.97774 L3.53268333,5.64102 L11.3014611,11.49246 L13.8558778,13.41522 L14.3263222,13.77054 L14.3577389,13.74618 L14.3891556,13.77054 L14.8604056,13.41522 L17.4140167,11.49246 L25.1827944,5.64102 L25.1827944,20.97774 L26.5119611,20.97774 C27.3312111,20.97774 28.0207667,20.41578 28.2398778,19.6455 C28.2882111,19.47834 28.3123778,19.30278 28.3123778,19.12134 L28.3123778,3.28398 L28.3123778,2.27682 C28.3123778,1.25118 27.5068222,0.42042 26.5119611,0.42042" id="Fill-5" fill="#979797"></path>
                <path d="M26.5598917,20.977404 L2.15558611,20.977404 C1.18730833,20.977404 0.402697222,20.159244 0.402697222,19.149564 L0.402697222,2.247924 C0.402697222,1.238244 1.18730833,0.420084 2.15558611,0.420084 L26.5598917,0.420084 C27.5281694,0.420084 28.3127806,1.238244 28.3127806,2.247924 L28.3127806,19.149564 C28.3127806,20.159244 27.5281694,20.977404 26.5598917,20.977404 Z" id="Stroke-7" stroke="#979797"></path>
            </g>
        </g>
    </g>
</svg>
